<svg width="20" height="20" viewBox="0 0 20 20" fill="none" xmlns="http://www.w3.org/2000/svg">
<g clip-path="url(#clip0_40_320)">
<path d="M8.4375 0.339844C6.64844 0.507812 5.19141 0.96875 3.77734 1.80469C3.5 1.97266 3.4375 2.04297 3.4375 2.19531C3.4375 2.37891 3.53516 2.44922 4.05078 2.62109C4.47656 2.76172 4.57422 2.80859 4.71094 2.94531C4.86719 3.09766 4.96094 3.30859 4.96094 3.5C4.96094 3.54688 4.92188 3.70703 4.87891 3.85156C4.8125 4.0625 4.80078 4.1875 4.8125 4.42578C4.83203 4.72656 4.84375 4.75781 5.28516 5.64453L5.73828 6.55859L5.53125 6.61719C4.74219 6.84766 4.42578 7.82422 4.94922 8.43359C5.01953 8.51953 5.35547 8.80859 5.69531 9.07812L6.30859 9.57031L6.44141 9.96094C6.51562 10.1758 6.66797 10.5469 6.78125 10.7852C6.89844 11.0234 6.99219 11.2266 6.99219 11.2344C6.99219 11.2383 6.32031 11.25 5.5 11.2578L4.00391 11.2695L3.74219 11.3945C3.37891 11.5664 3.15234 11.7852 2.97656 12.1406L2.83203 12.4375L2.82031 13.25L2.80469 14.0664L2.57422 14.1836C2.01953 14.4609 1.50391 14.8906 1.12891 15.3828C0.75 15.8867 0.449219 16.6016 0.355469 17.2539C0.332031 17.4062 0.3125 17.9766 0.3125 18.5156V19.4961L0.410156 19.5898L0.503906 19.6875H10H19.4961L19.5938 19.5898L19.6953 19.4883L19.6797 18.3477C19.6641 17.2656 19.6562 17.1875 19.5586 16.8164C19.2578 15.6758 18.4805 14.7109 17.4336 14.1875L17.1953 14.0664L17.1797 13.25L17.168 12.4375L17.0234 12.1406C16.8477 11.7852 16.6211 11.5664 16.2578 11.3945L15.9961 11.2695L14.5039 11.2578C13.6797 11.25 13.0078 11.2344 13.0078 11.2188C13.0078 11.2031 13.0352 11.1484 13.0664 11.1016C13.1562 10.9805 13.4883 10.1875 13.5977 9.85547L13.6875 9.57422L14.3047 9.08203C15.0195 8.50781 15.1602 8.35938 15.2539 8.0625C15.457 7.41797 15.0781 6.76953 14.4023 6.59766C14.3008 6.57422 14.2188 6.54297 14.2188 6.53125C14.2188 6.51562 14.3867 6.03906 14.5938 5.47266C14.8008 4.90234 14.9922 4.30859 15.0234 4.14844C15.3633 2.36719 14.1445 0.636719 12.3438 0.351562C12.1133 0.316406 8.79297 0.304688 8.4375 0.339844ZM12.3945 1C12.7422 1.07812 13.2422 1.3125 13.4844 1.51562C14.3672 2.25391 14.668 3.37109 14.2852 4.47266C14.082 5.05078 14.0273 5.18359 14.0273 5.11328C14.0195 4.96484 13.8164 4.34375 13.6914 4.09766C13.5156 3.74219 12.7188 2.55469 12.6367 2.52344C12.4766 2.46484 12.375 2.51562 11.8906 2.90234C11.6133 3.12109 11.3047 3.34766 11.207 3.40625C10.875 3.60156 10.4688 3.71094 9.92969 3.75C9.38672 3.78906 9.20703 3.82031 8.85156 3.94531C8.52344 4.05859 8.32812 4.17188 7.15234 4.95703C6.58203 5.33984 6.08984 5.66406 6.06641 5.67969C6.03125 5.69922 5.92578 5.52734 5.71875 5.10938C5.44141 4.54688 5.42578 4.5 5.44141 4.29688C5.44922 4.17969 5.48828 3.96094 5.52734 3.8125C5.58984 3.58594 5.59375 3.50391 5.55859 3.29688C5.53516 3.16016 5.47266 2.96484 5.42578 2.86328C5.30469 2.60938 5.00391 2.32031 4.74219 2.19922C4.48828 2.08203 4.46094 2.11328 5.07422 1.83594C5.96875 1.43359 7.08203 1.11719 7.96875 1.01953C8.17188 0.996094 8.39453 0.96875 8.45703 0.960938C8.52344 0.957031 9.37109 0.945312 10.3438 0.941406C11.832 0.9375 12.1562 0.949219 12.3945 1ZM12.7852 3.80859C13.332 4.64453 13.4375 4.99219 13.4375 5.97656V6.5625H11.9727H10.5039L10.4102 6.66016C10.3281 6.73828 10.3125 6.79297 10.3125 6.97266V7.1875H10H9.6875V6.97266C9.6875 6.79297 9.67188 6.73828 9.58984 6.66016L9.49609 6.5625H8.02734H6.5625V6.33594V6.10547L7.62891 5.39844C8.21094 5.00781 8.78906 4.64453 8.91406 4.58984C9.19922 4.46094 9.59766 4.375 9.94141 4.375C10.6562 4.37109 11.3945 4.08984 12.0352 3.57812C12.2383 3.41797 12.4102 3.28516 12.4219 3.28516C12.4336 3.28125 12.5977 3.51953 12.7852 3.80859ZM5.95312 7.52734C5.96875 7.71875 5.99609 8.01562 6.01953 8.19531C6.04297 8.375 6.05469 8.52734 6.04688 8.53516C6.01562 8.57031 5.44531 8.07812 5.37891 7.96094C5.19922 7.63672 5.45312 7.19922 5.82422 7.19141C5.92578 7.1875 5.92578 7.19141 5.95312 7.52734ZM7.1875 7.71875C7.1875 8.38281 7.22266 8.51562 7.48047 8.76953C7.72656 9.01953 7.87109 9.0625 8.44531 9.0625C9.01562 9.0625 9.19531 9.00391 9.42578 8.75C9.61719 8.53516 9.6875 8.34766 9.6875 8.03125V7.8125H10H10.3125V8.03125C10.3125 8.37109 10.3828 8.55078 10.6055 8.76953C10.8516 9.01953 10.9961 9.0625 11.5703 9.0625C12.1406 9.0625 12.3203 9.00391 12.5508 8.75C12.7734 8.5 12.8125 8.35547 12.8125 7.71875V7.1875H13.1289H13.4453L13.418 7.54688C13.3633 8.33984 13.1953 9.13281 12.9219 9.88281C12.8008 10.2188 12.4883 10.8906 12.3438 11.1211L12.2656 11.25H10H7.73438L7.65234 11.1211C7.51953 10.9102 7.20703 10.2344 7.07812 9.88281C6.8125 9.16016 6.63672 8.34375 6.58203 7.54688L6.55469 7.1875H6.87109H7.1875V7.71875ZM9.0625 7.71484C9.0625 8.22656 9.05859 8.25 8.96484 8.33984C8.875 8.43359 8.84375 8.4375 8.4375 8.4375C8.03125 8.4375 8 8.43359 7.91016 8.33984C7.81641 8.25 7.8125 8.22656 7.8125 7.71484V7.1875H8.4375H9.0625V7.71484ZM12.1875 7.71484C12.1875 8.22656 12.1836 8.25 12.0898 8.33984C12 8.43359 11.9688 8.4375 11.5625 8.4375C11.1562 8.4375 11.125 8.43359 11.0352 8.33984C10.9414 8.25 10.9375 8.22656 10.9375 7.71484V7.1875H11.5625H12.1875V7.71484ZM14.4062 7.26562C14.6641 7.42188 14.7539 7.71094 14.6211 7.96094C14.5547 8.07812 13.9883 8.57031 13.9531 8.53516C13.9453 8.52734 13.957 8.375 13.9766 8.19531C14 8.01562 14.0312 7.71875 14.0469 7.52734C14.0703 7.19141 14.0742 7.1875 14.1758 7.1875C14.2305 7.1875 14.3359 7.22266 14.4062 7.26562ZM15.9141 11.9219C16.1289 11.9844 16.4531 12.3086 16.5156 12.5234C16.5508 12.6445 16.5625 13.4844 16.5625 15.875V19.0625H10H3.4375V15.875C3.4375 13.4844 3.44922 12.6445 3.48438 12.5234C3.54297 12.3242 3.87109 11.9883 4.0625 11.9258C4.26953 11.8594 15.6953 11.8594 15.9141 11.9219ZM2.8125 16.9141V19.0625H1.87109H0.929688L0.949219 18.1562C0.964844 17.3711 0.976562 17.2031 1.05078 16.9336C1.23438 16.2734 1.63281 15.6406 2.13281 15.2188C2.34375 15.0391 2.74609 14.7695 2.80469 14.7656C2.80859 14.7656 2.8125 15.7305 2.8125 16.9141ZM17.5039 14.9414C18.0352 15.2852 18.5469 15.8945 18.7773 16.457C19 17 19.0312 17.1836 19.0508 18.1523L19.0703 19.0625H18.1289H17.1875V16.9141C17.1875 15.7305 17.1992 14.7656 17.2109 14.7656C17.2227 14.7656 17.3555 14.8438 17.5039 14.9414Z" fill="black"/>
<path d="M7.21484 12.9609C6.62891 13.5508 6.5625 13.6328 6.5625 13.75C6.5625 13.8672 6.62891 13.9492 7.22656 14.5469L7.89062 15.2148L8.11328 14.9922L8.33984 14.7656L7.83203 14.2578L7.32422 13.75L7.82422 13.25C8.09766 12.9766 8.32031 12.7344 8.32031 12.7109C8.32031 12.6602 7.96094 12.3047 7.90625 12.3047C7.88672 12.3047 7.57422 12.6016 7.21484 12.9609Z" fill="black"/>
<path d="M11.8633 12.4922C11.7617 12.5938 11.6797 12.6953 11.6797 12.7148C11.6797 12.7344 11.9023 12.9766 12.1758 13.25L12.6758 13.75L12.168 14.2578L11.6602 14.7656L11.8867 14.9922L12.1094 15.2148L12.7734 14.5469C13.3711 13.9492 13.4375 13.8672 13.4375 13.75C13.4375 13.6328 13.3711 13.5508 12.7852 12.9609C12.4258 12.6016 12.1133 12.3047 12.0898 12.3047C12.0664 12.3047 11.9648 12.3906 11.8633 12.4922Z" fill="black"/>
<path d="M9.74219 13.5742C9.23438 14.2539 8.82422 14.8164 8.83594 14.8281C8.90234 14.8906 9.27734 15.1562 9.30469 15.1562C9.34766 15.1562 11.1875 12.6992 11.1641 12.6719C11.0977 12.6094 10.7227 12.3438 10.6953 12.3438C10.6797 12.3438 10.25 12.8984 9.74219 13.5742Z" fill="black"/>
<path d="M9.60937 15.6875C9.05078 15.8906 8.71093 16.4062 8.76171 16.9727C8.80468 17.4258 9.02343 17.7578 9.42187 17.9727C9.64453 18.0938 9.69531 18.1055 9.99999 18.1055C10.3086 18.1055 10.3516 18.0938 10.5859 17.9648C11.4883 17.4688 11.4531 16.1836 10.5273 15.7461C10.2734 15.625 9.85546 15.5977 9.60937 15.6875ZM10.2461 16.3047C10.6523 16.4727 10.7461 16.9883 10.4297 17.3047C10.1719 17.5625 9.82031 17.5664 9.5664 17.3086C9.08203 16.8281 9.61718 16.0391 10.2461 16.3047Z" fill="black"/>
</g>
<defs>
<clipPath id="clip0_40_320">
<rect width="20" height="20" fill="white"/>
</clipPath>
</defs>
</svg>
