<svg width="20" height="20" viewBox="0 0 20 20" fill="none" xmlns="http://www.w3.org/2000/svg">
<g clip-path="url(#clip0_40_321)">
<path d="M7.91407 0.355471C6.26954 0.593752 4.88282 1.82422 4.42969 3.44141C4.29297 3.9336 4.25782 4.8125 4.35157 5.32422C4.58594 6.57031 5.38672 7.67578 6.49219 8.28125L6.69141 8.39063L6.51954 8.43359C4.4961 8.94922 2.69141 10.2891 1.60157 12.0859C1.13672 12.8594 0.750006 13.8594 0.582037 14.7266C0.46485 15.3555 0.460944 15.5703 0.582037 15.668C0.671881 15.7422 0.812506 15.7422 6.16797 15.7422L11.6602 15.7461L11.7969 15.9492C11.9102 16.1172 11.9883 16.1797 12.2539 16.3164L12.5703 16.4766L12.125 17.4336C11.8672 17.9883 11.6797 18.4414 11.6797 18.5078C11.6797 18.5781 11.7227 18.6758 11.7813 18.7461C11.9023 18.8945 12.0195 18.8984 12.6016 18.793L13 18.7227L13.2422 19.1484C13.4922 19.5859 13.6016 19.6875 13.8047 19.6875C13.9961 19.6875 14.1172 19.5 14.5508 18.5625C14.8242 17.9727 15 17.6367 15.0547 17.6055C15.1602 17.5469 15.582 17.5469 15.6836 17.6055C15.7344 17.6328 15.9219 17.9844 16.1875 18.5625C16.6211 19.5039 16.7461 19.6875 16.9375 19.6875C17.1367 19.6875 17.2422 19.5859 17.4922 19.1484L17.7383 18.7227L18.1172 18.793C18.6758 18.8984 18.8086 18.8906 18.9492 18.7539C19.0234 18.6758 19.0625 18.5977 19.0625 18.5195C19.0625 18.4492 18.875 18 18.6133 17.4375C18.3672 16.9063 18.168 16.4688 18.1758 16.4648C18.1797 16.4609 18.2969 16.4063 18.4375 16.3398C18.7461 16.1992 18.9258 16.0234 19.0547 15.7461C19.1484 15.543 19.1523 15.5156 19.1211 15.082C19.0742 14.3984 19.0703 14.4102 19.3008 13.9375C19.4922 13.5391 19.5117 13.4727 19.5117 13.2422C19.5078 12.8438 19.4492 12.7305 19.0039 12.2656L18.6055 11.8516L18.5156 11.4844C18.3047 10.5703 18.0391 10.3359 17.1445 10.2734C16.6406 10.2383 16.6406 10.2383 16.2422 9.93359C15.9141 9.68359 15.6484 9.57031 15.3867 9.57031C15.0742 9.57031 14.8867 9.64844 14.4648 9.96094C14.2617 10.1094 14.0547 10.2344 14.0039 10.2344C13.957 10.2344 13.7852 10.125 13.6094 9.98438C12.75 9.28906 11.5898 8.69922 10.5547 8.4375L10.3867 8.39453L10.7461 8.16797C12.0781 7.33203 12.8555 5.85547 12.7617 4.33594C12.6055 1.83203 10.375 -0.00390434 7.91407 0.355471ZM9.42188 1.05078C10.6953 1.38281 11.6875 2.375 12.0352 3.67188C12.1602 4.13672 12.1602 4.98828 12.0352 5.44922C11.6914 6.72266 10.7383 7.6875 9.46485 8.05469C9.19922 8.13281 9.07422 8.14453 8.4961 8.14453C7.87501 8.14063 7.81251 8.13281 7.50001 8.03125C6.44141 7.67969 5.70704 7.04297 5.25782 6.08985C4.98438 5.51172 4.94532 5.31641 4.94141 4.57031C4.94141 4.07422 4.95704 3.86719 5.00782 3.67969C5.39844 2.27344 6.48438 1.26563 7.90235 0.992189C8.28907 0.917971 9.03126 0.949221 9.42188 1.05078ZM9.26954 8.85156C9.45704 8.86328 9.60938 8.88672 9.60938 8.90234C9.60938 8.92578 9.30469 9.17188 8.56641 9.73438C8.53516 9.75781 8.34766 9.63281 7.98047 9.35156C7.6836 9.12109 7.4336 8.92969 7.42579 8.92188C7.37891 8.88281 7.48829 8.86328 7.9336 8.83203C8.40626 8.79688 8.57032 8.80078 9.26954 8.85156ZM7.3086 9.62109C7.70313 9.92578 8.02735 10.1992 8.02735 10.2227C8.02735 10.25 7.82032 10.5195 7.56251 10.8203L7.10157 11.375L7.03516 11.2617C6.90235 11.043 5.97657 9.38672 5.95313 9.32422C5.93751 9.27734 5.9961 9.24219 6.23829 9.16406C6.40626 9.10938 6.55469 9.06641 6.56641 9.0625C6.57813 9.0625 6.91407 9.3125 7.3086 9.62109ZM10.8086 9.16797L11.1328 9.26953L10.9609 9.58594C10.4922 10.4414 9.97657 11.332 9.94922 11.332C9.89844 11.332 8.97657 10.2266 9.00391 10.1992C9.05469 10.1484 10.4492 9.06641 10.4688 9.06641C10.4805 9.0625 10.6328 9.10938 10.8086 9.16797ZM6.0586 10.8086C6.45313 11.5117 6.80469 12.1172 6.84376 12.1563C6.94141 12.2539 7.15626 12.2461 7.2461 12.1484C7.28516 12.1055 7.32422 12.0781 7.33204 12.0859C7.33985 12.0938 7.25782 12.5352 7.14844 13.0664C7.03907 13.5977 6.95704 14.0742 6.96876 14.1211C6.98047 14.168 7.17579 14.4102 7.40235 14.6602L7.81641 15.1172H4.48047H1.14063L1.19922 14.8242C1.55469 12.9258 2.71876 11.1836 4.36719 10.0703C4.64454 9.88281 5.26172 9.53516 5.32032 9.53125C5.33204 9.53125 5.66407 10.1055 6.0586 10.8086ZM12.0234 9.68359C12.1914 9.76953 12.4922 9.94531 12.6914 10.082L13.0586 10.3242L12.8828 10.4141C12.6836 10.5156 12.4492 10.7617 12.3672 10.9531C12.3359 11.0234 12.2734 11.2578 12.2227 11.4688L12.1367 11.8555L11.7656 12.2266C11.3203 12.6719 11.2344 12.8359 11.2305 13.2227C11.2305 13.4766 11.2461 13.5313 11.4414 13.9336L11.6523 14.3711L11.6328 14.7266C11.6211 14.9219 11.6016 15.0898 11.5938 15.1016C11.582 15.1094 11.0547 15.1133 10.418 15.1094L9.25782 15.0977L9.66797 14.6367C10.0352 14.2266 10.0781 14.1641 10.0781 14.0313C10.0781 13.9531 9.99219 13.4805 9.88672 12.9805L9.69922 12.0742L9.79688 12.1484C9.91407 12.2422 10.1055 12.25 10.1992 12.1641C10.2383 12.1289 10.5898 11.5234 10.9844 10.8164C11.3789 10.1133 11.7031 9.53516 11.7109 9.53125C11.7148 9.53125 11.8555 9.60156 12.0234 9.68359ZM15.875 10.4414C16.0391 10.5664 16.2383 10.6992 16.3203 10.7422C16.4922 10.832 16.8359 10.8984 17.1328 10.8984C17.6445 10.8984 17.7656 11.0039 17.8906 11.5508C18.0195 12.1094 18.0898 12.2383 18.5 12.6367C18.9766 13.1016 18.9844 13.1328 18.7148 13.6992C18.4531 14.2578 18.4336 14.3672 18.4844 14.9219C18.5508 15.5977 18.5273 15.6328 17.8711 15.918C17.4453 16.1055 17.2891 16.2422 17.0156 16.6563C16.8984 16.832 16.7695 17.0039 16.7266 17.043C16.5898 17.1641 16.3789 17.168 16.0117 17.0508C15.4961 16.8867 15.3203 16.8828 14.8008 17.0313C14.3281 17.1641 14.1523 17.168 14.0117 17.043C13.9688 17.0039 13.8359 16.8242 13.7109 16.6367C13.418 16.2031 13.2969 16.1055 12.8281 15.9023C12.6172 15.8086 12.3984 15.6914 12.3438 15.6406C12.2461 15.5469 12.2461 15.5391 12.2461 14.8516V14.1602L12.0352 13.7227C11.7539 13.1406 11.7617 13.1055 12.2266 12.6523C12.625 12.2656 12.6953 12.1445 12.832 11.6016C12.9922 10.9727 13.0273 10.9414 13.6836 10.8945C14.2422 10.8516 14.3828 10.7969 14.8828 10.4297C15.1992 10.1992 15.2227 10.1875 15.3984 10.207C15.5469 10.2188 15.6367 10.2656 15.875 10.4414ZM8.84376 11.0547C8.85547 11.0859 8.9961 11.7539 9.15626 12.5352L9.44922 13.9531L8.99219 14.4609L8.53516 14.9648L8.25001 14.6602C8.08985 14.4922 7.88282 14.2617 7.78516 14.1484L7.60547 13.9414L7.86719 12.6641C8.01172 11.9609 8.14844 11.3086 8.16797 11.2109C8.19141 11.0938 8.26172 10.9688 8.36719 10.8438L8.52735 10.6563L8.67579 10.8281C8.75782 10.918 8.83204 11.0234 8.84376 11.0547ZM17.9961 17.5859C18.1328 17.8867 18.2383 18.1406 18.2266 18.1523C18.2148 18.1641 18.0938 18.1523 17.957 18.1289C17.5156 18.0508 17.4375 18.0664 17.3125 18.2344C17.2539 18.3203 17.1602 18.4688 17.1094 18.5664C17.0547 18.668 17 18.75 16.9883 18.75C16.9727 18.75 16.6055 18 16.5313 17.8125C16.5234 17.7969 16.5938 17.7656 16.6875 17.7422C16.9844 17.6641 17.207 17.4922 17.4297 17.1523C17.6719 16.7891 17.6016 16.7344 17.9961 17.5859ZM13.2461 17.0781C13.5078 17.4844 13.6914 17.6367 14.0703 17.75L14.2148 17.793L13.9961 18.2695C13.8711 18.5352 13.7617 18.75 13.75 18.75C13.7383 18.75 13.6797 18.6563 13.6172 18.543C13.5547 18.4336 13.4609 18.2813 13.4102 18.2109C13.3047 18.0664 13.207 18.0547 12.7852 18.1289C12.6484 18.1523 12.5234 18.1641 12.5117 18.1523C12.4883 18.125 13.0547 16.8789 13.0898 16.875C13.1055 16.875 13.1758 16.9688 13.2461 17.0781Z" fill="black"/>
<path d="M14.8828 11.3906C14.1016 11.5547 13.4414 12.1367 13.1562 12.9141C13.082 13.1055 13.0703 13.2266 13.0664 13.6523C13.0664 14.082 13.0781 14.1992 13.1562 14.4219C13.4258 15.1953 14.1055 15.7891 14.9219 15.9609C16.0273 16.1953 17.1914 15.5234 17.582 14.4258C17.6992 14.1055 17.7266 13.4648 17.6406 13.125C17.332 11.8945 16.1094 11.125 14.8828 11.3906ZM15.7109 11.9961C16.2344 12.1055 16.6797 12.457 16.9102 12.9453C17.1602 13.4648 17.1133 14.1133 16.7969 14.6016C16.5391 15 16.1172 15.2734 15.6289 15.3594C14.9062 15.4844 14.1445 15.0742 13.8164 14.3867C13.6992 14.1367 13.6914 14.0977 13.6914 13.6719C13.6914 13.25 13.6992 13.207 13.8164 12.9609C14.1641 12.2305 14.9375 11.8359 15.7109 11.9961Z" fill="black"/>
</g>
<defs>
<clipPath id="clip0_40_321">
<rect width="20" height="20" fill="white"/>
</clipPath>
</defs>
</svg>
