<svg width="48" height="48" viewBox="0 0 48 48" fill="none" xmlns="http://www.w3.org/2000/svg">
<path d="M37.2031 0.117197C35.9297 0.429697 34.8906 1.57032 34.7188 2.85157C34.6328 3.50782 34.7344 4.20313 34.9844 4.72657L35.1953 5.17188L32.8438 7.52345L30.5 9.8672L30.0078 9.65626C28.9688 9.18751 27.6172 9.32813 26.7266 10C26.4922 10.1719 26.2656 10.2969 26.2109 10.2813C26.1563 10.2578 25.2891 9.60157 24.2734 8.82032C22.5547 7.50001 22.4297 7.38282 22.4688 7.19532C22.6641 6.35157 22.6953 5.9922 22.6016 5.47657C22.4063 4.37501 21.8047 3.5547 20.8438 3.08595C20.1797 2.75001 19.5547 2.64845 18.8438 2.7422C18.1719 2.84376 17.6484 3.09376 17.1094 3.58595C16.3828 4.25001 16.0313 5.04688 16.0313 6.03126C16.0313 6.57032 16.2422 7.3672 16.4688 7.68751C16.5703 7.84376 16.4531 7.97657 14.2188 10.2109L11.8672 12.5703L11.5547 12.4063C10.2031 11.7188 8.63281 11.9922 7.58594 13.1016C5.91406 14.875 6.70312 17.7891 9.0625 18.5156C11.8203 19.3672 14.25 16.4531 12.9609 13.8438L12.7969 13.5078L15.1484 11.1563L17.5 8.8047L17.9219 9.00782C18.4922 9.28126 19.1719 9.38282 19.7969 9.29688C20.3984 9.21095 20.7109 9.08595 21.2266 8.72657L21.6172 8.46095L23.5703 9.96876C25.0078 11.0703 25.5156 11.5078 25.5 11.6172C25.4922 11.6953 25.4453 11.9766 25.3984 12.2344C25.0156 14.3203 26.9688 16.2734 29.1172 15.9609C30.2344 15.8047 31.2031 15.0938 31.6875 14.0703C31.9141 13.5859 31.9297 13.5 31.9297 12.6953C31.9297 11.9141 31.9063 11.7969 31.7031 11.3438L31.4766 10.8438L33.8281 8.4922L36.1875 6.13282L36.5156 6.3047C37.0234 6.56251 37.3672 6.64845 37.9688 6.64845C38.9375 6.65626 39.6797 6.35157 40.3438 5.6797C42.1641 3.84376 41.3125 0.773447 38.8047 0.117197C38.25 -0.023428 37.7813 -0.023428 37.2031 0.117197ZM38.7578 1.53126C39.2188 1.72657 39.5234 2.01563 39.75 2.46876C40.25 3.4922 39.8281 4.70313 38.8047 5.16407C38.4141 5.34376 37.6172 5.35938 37.2188 5.19532C36.8359 5.03126 36.3594 4.57032 36.1797 4.1797C35.9844 3.76563 35.9844 2.96095 36.1797 2.53907C36.625 1.5547 37.75 1.1172 38.7578 1.53126ZM20.375 4.33595C22.0859 5.34376 21.3203 7.98438 19.3125 7.98438C17.5859 7.98438 16.7188 5.88282 17.9297 4.62501C18.25 4.28907 18.5391 4.14063 18.9922 4.07032C19.4688 4.00001 19.9609 4.09376 20.375 4.33595ZM29.5313 10.9063C30.2891 11.2813 30.6797 11.9688 30.625 12.8047C30.5781 13.3906 30.4453 13.6953 30.0781 14.0703C29.5078 14.6328 28.5156 14.8047 27.7969 14.4609C26.8125 13.9844 26.3984 12.7656 26.8906 11.8047C27.3906 10.8203 28.5625 10.4219 29.5313 10.9063ZM10.9141 13.5781C11.5703 13.9141 11.9609 14.5703 11.9688 15.3359C11.9688 16.1172 11.625 16.6953 10.9453 17.0703C10.2109 17.4688 9.30469 17.3672 8.66406 16.8047C8.25781 16.4453 8.04687 15.9531 8.03906 15.3672C8.03906 14.5313 8.42969 13.9141 9.19531 13.5391C9.51562 13.3828 9.67187 13.3594 10.0937 13.3828C10.3984 13.3984 10.7266 13.4766 10.9141 13.5781Z" fill="black"/>
<path d="M34.3047 13.4609C34.2344 13.5156 34.1406 13.6328 34.0938 13.7266C34.0234 13.8516 34 17.0156 34 26.2812V38.6719H33.3359H32.6719L32.6562 30.8594L32.6328 23.0547L32.4531 22.875L32.2734 22.6953L28.8594 22.6719C25.2656 22.6484 24.9609 22.6719 24.7969 22.9844C24.7266 23.1172 24.6953 25.1094 24.6797 30.8984L24.6641 38.6328H24H23.3359L23.2969 27.4766L23.2578 16.3125L23.0703 16.1641C22.8984 16.0234 22.7188 16.0156 19.3438 16.0156H15.8047L15.5859 16.2031L15.3672 16.3906L15.3438 27.5312L15.3281 38.6719H14.6641H14V32.2344V25.7891L13.8125 25.5703L13.625 25.3516H10.0312H6.4375L6.23438 25.5391L6.03125 25.7266V32.2031V38.6719H5.01562H4V39.3359V40H24H44V39.3359V38.6719H42.9844H41.9688V26.2109V13.7422L41.7734 13.5547L41.5859 13.3594H38.0078C35.3203 13.3672 34.3984 13.3906 34.3047 13.4609ZM40.6406 26.6797V38.6719H37.9844H35.3281V26.6797V14.6875H37.9844H40.6406V26.6797ZM21.9688 28.0078V38.6719H19.3125H16.6562V28.0078V17.3438H19.3125H21.9688V28.0078ZM31.3438 31.3281V38.6719H28.6875H26.0312V31.3281V23.9844H28.6875H31.3438V31.3281ZM12.6719 32.6562V38.6719H10.0156H7.35938V32.6562V26.6406H10.0156H12.6719V32.6562Z" fill="black"/>
</svg>
