<svg width="41" height="40" viewBox="0 0 41 40" fill="none" xmlns="http://www.w3.org/2000/svg">
<path d="M6.67969 0.906281C6.52344 1.10159 6.51563 1.21097 6.51563 3.09378V5.07816L4.52344 7.73441L2.53126 10.3907V17.7188V25.0391L2.14844 25.375C1.89063 25.5938 1.67188 25.8828 1.50001 26.2266C1.28126 26.6797 1.23438 26.8516 1.21876 27.4375C1.18751 28.0703 1.20313 28.1641 1.42969 28.6407C1.82032 29.4766 2.92188 30.4063 4.03126 30.8438C4.19532 30.9063 4.32813 30.9844 4.32813 31.0078C4.32813 31.0313 4.10938 31.1953 3.85157 31.3672C3.25001 31.7657 2.75782 32.3047 2.47657 32.875C2.28907 33.2578 2.25782 33.4141 2.25782 33.9844C2.25782 34.5547 2.28907 34.7032 2.46876 35.0391C2.97657 36 4.26563 36.7969 5.30469 36.7969C6.57032 36.7969 8.28126 35.7891 10.1797 33.9219L11.1094 33.0078L11.2422 33.4922C11.3906 34.0391 11.7891 34.75 12.1641 35.1407C13.0938 36.1172 15.2109 37.0782 17.8594 37.7266C20.4453 38.3594 24.9453 38.9844 28.6797 39.2266C30.6016 39.3438 34.5 39.2813 35.4844 39.1094C38.0391 38.6641 38.9688 37.6641 38.2188 36.1719C37.9219 35.5625 36.9375 34.5547 35.9453 33.8282C35.5625 33.5469 35.1797 33.2657 35.0938 33.2032C34.9453 33.086 34.9609 33.0703 35.4844 32.711C36.6094 31.9375 37.9453 30.3516 38.6641 28.9141C39.0703 28.1016 39.5313 26.6641 39.6875 25.711C39.875 24.5547 39.8047 22.4141 39.5391 21.211C38.7188 17.5313 36.8594 15.25 34.25 14.7188C33.1328 14.5 31.9688 14.6641 30.625 15.2422C30.2344 15.4063 29.9219 15.5313 29.9141 15.5235C29.9141 15.5157 29.8438 15.1875 29.7734 14.8047C29.6953 14.4141 29.3906 13.3828 29.0938 12.5C28.5391 10.8516 28.3906 10.25 28.3906 9.59378C28.3906 9.04691 28.5938 8.14847 28.8594 7.50003L29.0859 6.94534L28.5 6.65628C27.8203 6.32034 27.8828 6.28128 27.5234 7.26566C26.8672 9.05472 26.9141 10.3047 27.7266 12.6328C27.9609 13.3125 28.2266 14.1094 28.3125 14.4141C28.4844 15.0391 28.6484 16.336 28.5625 16.4219C28.5313 16.4532 28.2109 16.2813 27.8438 16.0469C26.6797 15.2891 25.5859 14.8438 24.4844 14.6797L23.8672 14.5938L23.8438 12.5078L23.8203 10.4141L21.8125 7.73441L19.7969 5.05472V3.04691C19.7969 1.05472 19.7969 1.03909 19.6172 0.875031L19.4375 0.703156H13.1406H6.83594L6.67969 0.906281ZM18.4688 3.35941V4.68753H13.1563H7.84376V3.35941V2.03128H13.1563H18.4688V3.35941ZM17.75 6.08597C17.7422 6.11722 17.0781 7.01566 16.2813 8.07816L14.8359 10H9.69532C6.86719 10 4.56251 9.96878 4.57813 9.92972C4.59376 9.89847 5.25001 9.00003 6.04688 7.93753L7.49219 6.01566H12.6328C15.4609 6.01566 17.7656 6.04691 17.75 6.08597ZM20.5234 8.24222L21.8281 10H19.1641H16.5L16.7266 9.70316C17.9219 8.07816 19.1406 6.48441 19.1719 6.48441C19.1953 6.49222 19.7969 7.28128 20.5234 8.24222ZM14.4844 13.3203V15.3125H9.17188H3.85938V13.3203V11.3282H9.17188H14.4844V13.3203ZM22.5313 13.0469V14.7578L22.2031 14.8516C20.7422 15.2422 19.3281 16.5703 18.3984 18.4219C17.5859 20.0391 17.0625 22.7188 17.1875 24.586L17.2422 25.336L16.9375 25.2891C16.7734 25.2578 16.4453 25.2344 16.2266 25.2344H15.8125V18.2813V11.3282H19.1719H22.5313V13.0469ZM25.0859 16.1797C25.8047 16.3985 26.8359 16.9453 27.6172 17.5078C27.9688 17.7578 28.2891 17.9688 28.3281 17.9688C28.4297 17.9688 28.3984 18.2032 28.2109 18.7657L28.0391 19.2969L27.6484 19.1172C27.4297 19.0157 27.1406 18.7969 27 18.6407L26.7422 18.3516L26.2266 18.6485C25.9453 18.8125 25.6953 18.9922 25.6719 19.0469C25.6172 19.211 26.5938 20.1094 27.0781 20.336C28.375 20.9453 30.0156 20.6172 30.9609 19.5547C31.1797 19.3125 31.3594 19.086 31.3594 19.0469C31.3594 19.0157 31.1172 18.8438 30.8125 18.6719L30.2656 18.3516L29.9531 18.6797C29.7813 18.8594 29.625 18.9922 29.6094 18.9766C29.5938 18.961 29.6484 18.625 29.7266 18.2422C29.8047 17.8516 29.875 17.4532 29.875 17.336C29.875 17.1719 29.9688 17.086 30.4453 16.8203C30.7578 16.6407 31.3438 16.3828 31.75 16.2422C32.7031 15.9219 33.7734 15.8828 34.5078 16.1563C36.8281 17 38.4688 20.1953 38.4688 23.8672C38.4688 25.9375 37.9219 27.7422 36.7891 29.4532C36.0938 30.4922 34.8984 31.625 34.0078 32.0782L33.6484 32.2578L33.1094 31.9297C29.1484 29.4922 22.8359 26.625 19.5703 25.7735C19.0781 25.6485 18.6641 25.5313 18.6484 25.5157C18.5391 25.4063 18.4844 23.9688 18.5547 23.0938C18.8438 19.3594 20.5547 16.5782 22.875 16.0469C23.4766 15.9141 24.3828 15.9688 25.0859 16.1797ZM14.4844 21.086V25.5313L14.0469 25.7813C13.8047 25.9141 13.4609 26.1641 13.2734 26.336L12.9375 26.6485L12.8438 26.1953C12.6484 25.2032 12.2109 23.6719 11.9219 22.9532C11.3438 21.5078 10.6719 20.6407 9.81251 20.2188C9.31251 19.9688 9.25782 19.961 8.35157 19.961C7.48438 19.961 7.38282 19.9766 6.96876 20.1797C6.42188 20.4453 5.94532 20.9688 5.73438 21.5313C5.45313 22.2891 5.57032 23.4297 6.01563 24.3047C6.11719 24.5157 6.20313 24.6953 6.20313 24.711C6.20313 24.7266 6.03907 24.711 5.83594 24.6797C5.62501 24.6485 5.10157 24.6172 4.66407 24.6172L3.85938 24.6094V20.625V16.6407H9.17188H14.4844V21.086ZM9.05469 21.336C9.89844 21.5625 10.7344 23.125 11.3594 25.6016C11.5625 26.4297 11.8281 27.9766 11.8281 28.3672C11.8281 28.8047 11.2344 30.7578 11.0156 31.0469C10.9141 31.1797 10.5156 31.6407 10.1328 32.0703C8.50782 33.875 6.57813 35.2969 5.55469 35.4375C4.90626 35.5313 3.96876 35.0391 3.66407 34.4453C3.18751 33.5391 4.14844 32.461 6.10157 31.7188C6.45313 31.586 6.78126 31.4219 6.84376 31.3516C6.98438 31.1797 6.96876 30.6563 6.82032 30.5078C6.75001 30.4375 6.28126 30.2422 5.77344 30.0703C4.09376 29.5 2.92969 28.7657 2.64063 28.086C2.38282 27.461 2.60938 26.6407 3.13282 26.2969C3.78907 25.8672 5.03907 25.836 6.63282 26.2188C7.96094 26.5391 7.96094 26.5391 8.23438 26.2657C8.36719 26.1328 8.46876 25.9453 8.46876 25.8438C8.46876 25.7344 8.23438 25.3282 7.93751 24.9141C7.25001 23.9532 6.96876 23.3203 6.92969 22.6563C6.89063 22.0235 7.04688 21.6797 7.49219 21.4297C7.84376 21.2266 8.52344 21.1875 9.05469 21.336ZM17.8984 26.7578C18.5625 26.8828 20.2734 27.3282 20.4063 27.4141C20.4766 27.4532 20.2734 28.2578 19.6797 30.3125C19.1641 32.0938 18.8828 33.1719 18.9375 33.2032C19.0469 33.2735 20.1094 33.5391 20.1328 33.5078C20.1484 33.4922 20.5156 32.2266 20.9531 30.711C21.3984 29.1875 21.7656 27.9297 21.7813 27.9141C21.8203 27.875 23.7344 28.6563 25.0703 29.2578C27.2813 30.25 32.2656 32.8438 32.6406 33.2032C32.6719 33.2422 32.5547 33.7813 32.375 34.4063C32.1875 35.0391 32.0625 35.5703 32.0859 35.5938C32.1094 35.6172 32.3906 35.7188 32.7188 35.8203L33.3047 36L33.4219 35.6016C33.4844 35.375 33.6172 34.9219 33.7109 34.5938L33.8828 33.9922L34.3438 34.3047C35.1875 34.8828 36.3516 35.8672 36.7109 36.3047C37.1641 36.8594 37.2266 37.086 36.9766 37.2735C36.75 37.4453 35.8906 37.6953 35.0703 37.8282C34.1328 37.9766 28.9766 37.9532 27.2656 37.7891C26.5469 37.7188 25.9375 37.6485 25.9219 37.6328C25.9063 37.6172 26.0313 37.1172 26.2109 36.5313C26.3828 35.9375 26.5156 35.4453 26.5 35.4297C26.4297 35.3594 25.3281 35.0782 25.2734 35.1094C25.2422 35.1328 25.0625 35.6797 24.875 36.3282C24.625 37.211 24.5078 37.5 24.4141 37.5C24.1641 37.5 21.0625 37.0235 20.0313 36.8282C16.6953 36.1953 14.2109 35.2735 13.2344 34.2969C12.6484 33.711 12.4531 33.2188 12.4531 32.2969C12.4531 31.5391 12.6016 30.75 12.9375 29.6875C13.5625 27.7188 14.3047 26.875 15.5859 26.6485C16.0781 26.5625 17.1016 26.6094 17.8984 26.7578Z" fill="black"/>
<path d="M31.2812 8.78125C30.5 9 29.8047 9.50781 29.3906 10.1484C29.2734 10.3438 29.1719 10.5703 29.1719 10.6641C29.1719 10.8984 29.5547 11.4688 29.9531 11.8281C30.1328 11.9922 30.5156 12.2344 30.8047 12.375C31.2812 12.6016 31.3828 12.6172 32.1484 12.6172C32.9375 12.6172 32.9922 12.6094 33.5625 12.3203C33.9844 12.1172 34.2812 11.8984 34.5938 11.5625C35.1406 10.9688 35.2109 10.6875 34.9297 10.2109C34.2422 9.03906 32.6328 8.40625 31.2812 8.78125ZM32.7891 10.1094C32.9453 10.1719 33.2031 10.3125 33.3594 10.4297C33.625 10.6328 33.6328 10.6406 33.4922 10.7969C33.1953 11.125 32.7578 11.2891 32.1406 11.2891C31.5234 11.2891 31.0859 11.125 30.7891 10.7969C30.6484 10.6406 30.6562 10.6328 30.9219 10.4297C31.2891 10.1484 31.7031 10.0078 32.1406 10.0078C32.3359 10.0078 32.625 10.0547 32.7891 10.1094Z" fill="black"/>
</svg>
