<svg width="20" height="20" viewBox="0 0 20 20" fill="none" xmlns="http://www.w3.org/2000/svg">
<g clip-path="url(#clip0_12_49)">
<path d="M3.08987 0.453125C3.01174 0.550781 3.00784 0.605469 3.00784 1.54688V2.53906L2.01174 3.86719L1.01565 5.19531V8.85938V12.5195L0.824244 12.6875C0.695338 12.7969 0.585963 12.9414 0.500026 13.1133C0.390651 13.3398 0.367213 13.4258 0.359401 13.7188C0.343776 14.0352 0.351588 14.082 0.464869 14.3203C0.660182 14.7383 1.21096 15.2031 1.76565 15.4219C1.84768 15.4531 1.91409 15.4922 1.91409 15.5039C1.91409 15.5156 1.80471 15.5977 1.67581 15.6836C1.37503 15.8828 1.12893 16.1523 0.988307 16.4375C0.894557 16.6289 0.878932 16.707 0.878932 16.9922C0.878932 17.2773 0.894557 17.3516 0.984401 17.5195C1.23831 18 1.88284 18.3984 2.40237 18.3984C3.03518 18.3984 3.89065 17.8945 4.83987 16.9609L5.30471 16.5039L5.37112 16.7461C5.44534 17.0195 5.64456 17.375 5.83206 17.5703C6.2969 18.0586 7.35549 18.5391 8.67971 18.8633C9.97268 19.1797 12.2227 19.4922 14.0899 19.6133C15.0508 19.6719 17 19.6406 17.4922 19.5547C18.7696 19.332 19.2344 18.832 18.8594 18.0859C18.711 17.7813 18.2188 17.2773 17.7227 16.9141C17.5313 16.7734 17.3399 16.6328 17.2969 16.6016C17.2227 16.543 17.2305 16.5352 17.4922 16.3555C18.0547 15.9688 18.7227 15.1758 19.0821 14.457C19.2852 14.0508 19.5156 13.332 19.5938 12.8555C19.6875 12.2773 19.6524 11.207 19.5196 10.6055C19.1094 8.76563 18.1797 7.625 16.875 7.35938C16.3164 7.25 15.7344 7.33203 15.0625 7.62109C14.8672 7.70313 14.711 7.76563 14.7071 7.76172C14.7071 7.75781 14.6719 7.59375 14.6367 7.40234C14.5977 7.20703 14.4453 6.69141 14.2969 6.25C14.0196 5.42578 13.9453 5.125 13.9453 4.79688C13.9453 4.52344 14.0469 4.07422 14.1797 3.75L14.293 3.47266L14 3.32812C13.6602 3.16016 13.6914 3.14062 13.5117 3.63281C13.1836 4.52734 13.2071 5.15234 13.6133 6.31641C13.7305 6.65625 13.8633 7.05469 13.9063 7.20703C13.9922 7.51953 14.0742 8.16797 14.0313 8.21094C14.0157 8.22656 13.8555 8.14063 13.6719 8.02344C13.0899 7.64453 12.543 7.42188 11.9922 7.33984L11.6836 7.29688L11.6719 6.25391L11.6602 5.20703L10.6563 3.86719L9.64846 2.52734V1.52344C9.64846 0.527344 9.64846 0.519531 9.55862 0.4375L9.46878 0.351562H6.32034H3.16799L3.08987 0.453125ZM8.9844 1.67969V2.34375H6.32815H3.6719V1.67969V1.01562H6.32815H8.9844V1.67969ZM8.62503 3.04297C8.62112 3.05859 8.28909 3.50781 7.89065 4.03906L7.16799 5H4.59768C3.18362 5 2.03128 4.98438 2.03909 4.96484C2.0469 4.94922 2.37503 4.5 2.77346 3.96875L3.49612 3.00781H6.06643C7.48049 3.00781 8.63284 3.02344 8.62503 3.04297ZM10.0117 4.12109L10.6641 5H9.33206H8.00003L8.11331 4.85156C8.71096 4.03906 9.32034 3.24219 9.33596 3.24219C9.34768 3.24609 9.64846 3.64062 10.0117 4.12109ZM6.99221 6.66016V7.65625H4.33596H1.67971V6.66016V5.66406H4.33596H6.99221V6.66016ZM11.0157 6.52344V7.37891L10.8516 7.42578C10.1211 7.62109 9.41409 8.28516 8.94924 9.21094C8.54299 10.0195 8.28128 11.3594 8.34378 12.293L8.37112 12.668L8.21878 12.6445C8.13674 12.6289 7.97268 12.6172 7.86331 12.6172H7.65628V9.14063V5.66406H9.33596H11.0157V6.52344ZM12.293 8.08984C12.6524 8.19922 13.168 8.47266 13.5586 8.75391C13.7344 8.87891 13.8946 8.98438 13.9141 8.98438C13.9649 8.98438 13.9492 9.10156 13.8555 9.38281L13.7696 9.64844L13.5742 9.55859C13.4649 9.50781 13.3203 9.39844 13.25 9.32031L13.1211 9.17578L12.8633 9.32422C12.7227 9.40625 12.5977 9.49609 12.586 9.52344C12.5586 9.60547 13.0469 10.0547 13.2891 10.168C13.9375 10.4727 14.7578 10.3086 15.2305 9.77734C15.3399 9.65625 15.4297 9.54297 15.4297 9.52344C15.4297 9.50781 15.3086 9.42188 15.1563 9.33594L14.8828 9.17578L14.7266 9.33984C14.6407 9.42969 14.5625 9.49609 14.5547 9.48828C14.5469 9.48047 14.5742 9.3125 14.6133 9.12109C14.6524 8.92578 14.6875 8.72656 14.6875 8.66797C14.6875 8.58594 14.7344 8.54297 14.9727 8.41016C15.1289 8.32031 15.4219 8.19141 15.625 8.12109C16.1016 7.96094 16.6367 7.94141 17.0039 8.07813C18.1641 8.5 18.9844 10.0977 18.9844 11.9336C18.9844 12.9688 18.711 13.8711 18.1446 14.7266C17.7969 15.2461 17.1992 15.8125 16.7539 16.0391L16.5742 16.1289L16.3047 15.9648C14.3242 14.7461 11.168 13.3125 9.53518 12.8867C9.28909 12.8242 9.08206 12.7656 9.07424 12.7578C9.01956 12.7031 8.99221 11.9844 9.02737 11.5469C9.1719 9.67969 10.0274 8.28906 11.1875 8.02344C11.4883 7.95703 11.9414 7.98438 12.293 8.08984ZM6.99221 10.543V12.7656L6.77346 12.8906C6.65237 12.957 6.48049 13.082 6.38674 13.168L6.21878 13.3242L6.1719 13.0977C6.07424 12.6016 5.85549 11.8359 5.71096 11.4766C5.4219 10.7539 5.08596 10.3203 4.65628 10.1094C4.40628 9.98438 4.37893 9.98047 3.92581 9.98047C3.49221 9.98047 3.44143 9.98828 3.2344 10.0898C2.96096 10.2227 2.72268 10.4844 2.61721 10.7656C2.47659 11.1445 2.53518 11.7148 2.75784 12.1523C2.80862 12.2578 2.85159 12.3477 2.85159 12.3555C2.85159 12.3633 2.76956 12.3555 2.66799 12.3398C2.56253 12.3242 2.30081 12.3086 2.08206 12.3086L1.67971 12.3047V10.3125V8.32031H4.33596H6.99221V10.543ZM4.27737 10.668C4.69924 10.7813 5.11721 11.5625 5.42971 12.8008C5.53128 13.2148 5.66409 13.9883 5.66409 14.1836C5.66409 14.4023 5.36721 15.3789 5.25784 15.5234C5.20706 15.5898 5.00784 15.8203 4.81643 16.0352C4.00393 16.9375 3.03909 17.6484 2.52737 17.7188C2.20315 17.7656 1.7344 17.5195 1.58206 17.2227C1.34378 16.7695 1.82424 16.2305 2.80081 15.8594C2.97659 15.793 3.14065 15.7109 3.1719 15.6758C3.24221 15.5898 3.2344 15.3281 3.16018 15.2539C3.12503 15.2188 2.89065 15.1211 2.63674 15.0352C1.7969 14.75 1.21487 14.3828 1.07034 14.043C0.941432 13.7305 1.05471 13.3203 1.31643 13.1484C1.64456 12.9336 2.26956 12.918 3.06643 13.1094C3.73049 13.2695 3.73049 13.2695 3.86721 13.1328C3.93362 13.0664 3.9844 12.9727 3.9844 12.9219C3.9844 12.8672 3.86721 12.6641 3.71878 12.457C3.37503 11.9766 3.2344 11.6602 3.21487 11.3281C3.19534 11.0117 3.27346 10.8398 3.49612 10.7148C3.6719 10.6133 4.01174 10.5938 4.27737 10.668ZM8.69924 13.3789C9.03128 13.4414 9.88674 13.6641 9.95315 13.707C9.98831 13.7266 9.88674 14.1289 9.58987 15.1563C9.33206 16.0469 9.19143 16.5859 9.21878 16.6016C9.27346 16.6367 9.80471 16.7695 9.81643 16.7539C9.82424 16.7461 10.0078 16.1133 10.2266 15.3555C10.4492 14.5938 10.6328 13.9648 10.6407 13.957C10.6602 13.9375 11.6172 14.3281 12.2852 14.6289C13.3907 15.125 15.8828 16.4219 16.0703 16.6016C16.086 16.6211 16.0274 16.8906 15.9375 17.2031C15.8438 17.5195 15.7813 17.7852 15.793 17.7969C15.8047 17.8086 15.9453 17.8594 16.1094 17.9102L16.4024 18L16.461 17.8008C16.4922 17.6875 16.5586 17.4609 16.6055 17.2969L16.6914 16.9961L16.9219 17.1523C17.3438 17.4414 17.9258 17.9336 18.1055 18.1523C18.3321 18.4297 18.3633 18.543 18.2383 18.6367C18.125 18.7227 17.6953 18.8477 17.2852 18.9141C16.8164 18.9883 14.2383 18.9766 13.3828 18.8945C13.0235 18.8594 12.7188 18.8242 12.711 18.8164C12.7032 18.8086 12.7657 18.5586 12.8555 18.2656C12.9414 17.9688 13.0078 17.7227 13 17.7148C12.9649 17.6797 12.4141 17.5391 12.3867 17.5547C12.3711 17.5664 12.2813 17.8398 12.1875 18.1641C12.0625 18.6055 12.0039 18.75 11.9571 18.75C11.8321 18.75 10.2813 18.5117 9.76565 18.4141C8.09768 18.0977 6.85549 17.6367 6.36721 17.1484C6.07424 16.8555 5.97659 16.6094 5.97659 16.1484C5.97659 15.7695 6.05081 15.375 6.21878 14.8438C6.53128 13.8594 6.90237 13.4375 7.54299 13.3242C7.78909 13.2813 8.30081 13.3047 8.69924 13.3789Z" fill="black"/>
<path d="M15.3906 4.39062C15 4.5 14.6523 4.75391 14.4453 5.07422C14.3867 5.17188 14.3359 5.28516 14.3359 5.33203C14.3359 5.44922 14.5273 5.73438 14.7266 5.91406C14.8164 5.99609 15.0078 6.11719 15.1523 6.1875C15.3906 6.30078 15.4414 6.30859 15.8242 6.30859C16.2188 6.30859 16.2461 6.30469 16.5312 6.16016C16.7422 6.05859 16.8906 5.94922 17.0469 5.78125C17.3203 5.48438 17.3555 5.34375 17.2148 5.10547C16.8711 4.51953 16.0664 4.20312 15.3906 4.39062ZM16.1445 5.05469C16.2227 5.08594 16.3516 5.15625 16.4297 5.21484C16.5625 5.31641 16.5664 5.32031 16.4961 5.39844C16.3477 5.5625 16.1289 5.64453 15.8203 5.64453C15.5117 5.64453 15.293 5.5625 15.1445 5.39844C15.0742 5.32031 15.0781 5.31641 15.2109 5.21484C15.3945 5.07422 15.6016 5.00391 15.8203 5.00391C15.918 5.00391 16.0625 5.02734 16.1445 5.05469Z" fill="black"/>
</g>
<defs>
<clipPath id="clip0_12_49">
<rect width="20" height="20" fill="white"/>
</clipPath>
</defs>
</svg>
