<svg width="20" height="20" viewBox="0 0 20 20" fill="none" xmlns="http://www.w3.org/2000/svg">
<g clip-path="url(#clip0_216_2639)">
<path d="M4.72657 0.921877C3.73048 1.05078 2.91016 1.33594 2.22266 1.79688C1.89063 2.01953 1.23438 2.6875 1.00782 3.02735C0.527351 3.76172 0.250007 4.53125 0.0937572 5.54688C-0.00389907 6.20313 -0.00780532 7.51953 0.0937572 7.96875C0.574226 10.1719 2.51173 13.0391 5.53516 16.0156C7.03126 17.4922 8.3047 18.5586 8.91798 18.8477C9.66016 19.2031 10.625 19.1602 11.3086 18.7422C11.6836 18.5117 12.6602 17.6992 13.6602 16.793C14.2891 16.2188 14.3594 16.1055 14.3281 15.7227C14.3086 15.4844 14.2383 15.3672 14.0117 15.1797C13.8438 15.0469 13.5352 15 13.3047 15.0781C13.2188 15.1055 12.9492 15.3203 12.5899 15.6523C11.9649 16.2266 10.8359 17.1797 10.5781 17.3555C10.3672 17.4961 10.1445 17.5508 9.89845 17.5273C9.62891 17.5 9.51173 17.4336 8.98438 17.0117C6.96095 15.3867 4.44141 12.7656 3.32813 11.125L3.20313 10.9414L4.33204 10.9297L5.46094 10.918L5.63282 10.8008C5.81641 10.6719 5.8711 10.5703 6.34376 9.57031C6.5586 9.10938 6.61719 9.01953 6.64844 9.07422C6.66798 9.11328 7.11719 10.125 7.64063 11.3203C8.16798 12.5156 8.64063 13.5703 8.69141 13.6602C8.82032 13.8789 9.14454 14.043 9.38673 14.0156C9.6172 13.9883 9.83204 13.8789 9.94141 13.7344C10.0117 13.6406 10.8164 11.875 11.5703 10.1563L11.6484 9.98047L12.1719 11.0234C12.5078 11.6914 12.7422 12.1133 12.8242 12.1992C12.9883 12.3594 13.25 12.4414 13.4922 12.4063C13.7969 12.3594 13.9297 12.2227 14.3164 11.5508L14.668 10.9375H15.7149H16.7617L16.7149 11.0195C16.6602 11.125 15.9961 12.0039 15.7422 12.3086C15.5078 12.5898 15.4141 12.8281 15.4375 13.0664C15.4844 13.457 15.8906 13.7813 16.2891 13.7422C16.5625 13.7148 16.7031 13.6016 17.1211 13.0859C18.6406 11.1914 19.582 9.44141 19.8867 7.92969C20.0938 6.90235 19.9883 5.4336 19.6289 4.35156C19.1133 2.79688 18.0547 1.70703 16.5703 1.20703C15.9453 0.996096 15.4531 0.921877 14.668 0.921877C13.6172 0.921877 12.8828 1.07813 12.0859 1.46485C11.4141 1.78906 10.8125 2.27735 10.2109 2.98047L10.0195 3.20703L9.68751 2.80469C9.50391 2.58594 9.22657 2.29688 9.06641 2.16406C8.39063 1.60156 7.44532 1.17969 6.41798 0.996096C6.08204 0.933596 4.9961 0.886721 4.72657 0.921877ZM5.9961 2.50391C7.16798 2.64844 8.13673 3.23438 8.78907 4.19922C9.00782 4.52344 9.10938 4.71875 9.22266 5.02735C9.33595 5.32813 9.45704 5.48438 9.66016 5.58203C9.98048 5.73828 10.3945 5.65235 10.5977 5.38672C10.6524 5.3125 10.7344 5.15625 10.7813 5.03906C11.1289 4.14844 11.8984 3.3086 12.7617 2.875C14.082 2.21485 15.9922 2.36719 17.0781 3.22266C17.9375 3.89844 18.4375 5.21485 18.4375 6.79688C18.4375 7.46094 18.2461 8.23828 17.8906 9.01172L17.7227 9.3711L15.8399 9.38281L13.9609 9.39453L13.7969 9.5C13.7109 9.5586 13.5899 9.6875 13.5352 9.78516C13.4766 9.88281 13.418 9.96094 13.4063 9.96094C13.3906 9.96094 13.1172 9.44141 12.8008 8.8086C12.2891 7.78906 12.2031 7.64063 12.0664 7.53906C11.7734 7.32813 11.3516 7.34766 11.0977 7.58203C10.957 7.71094 10.8359 7.96094 9.96095 9.92969C9.62891 10.6758 9.34376 11.2734 9.33204 11.2578C9.31641 11.2422 8.86329 10.2188 8.32032 8.98438C7.77735 7.75 7.30079 6.69141 7.26173 6.63281C7.15235 6.48047 6.94532 6.36719 6.72266 6.33985C6.5586 6.32031 6.49219 6.33594 6.3086 6.42578C6.03907 6.55469 6.04688 6.54297 5.28907 8.14844L4.70704 9.375L3.48048 9.36719L2.25391 9.35547L2.06251 8.91016C1.67579 8.01172 1.54298 7.33985 1.57813 6.51953C1.64454 5.01172 2.08204 3.91797 2.88282 3.26172C3.64454 2.63281 4.78126 2.35547 5.9961 2.50391Z" fill="black"/>
</g>
<defs>
<clipPath id="clip0_216_2639">
<rect width="20" height="20" fill="white"/>
</clipPath>
</defs>
</svg>
