<svg width="40" height="40" viewBox="0 0 40 40" fill="none" xmlns="http://www.w3.org/2000/svg">
<path d="M20.1719 0.15625C19.9375 0.375 19.9375 0.796875 20.1719 1.01562C20.3203 1.15625 20.4453 1.17188 21.1875 1.17188C21.6484 1.17188 22.0312 1.1875 22.0312 1.21094C22.0312 1.23438 21.6094 1.92188 21.0937 2.75C20.1328 4.28906 20.0312 4.54688 20.2344 4.92969C20.4062 5.25 20.7031 5.3125 21.9844 5.3125C22.6484 5.3125 23.2812 5.28125 23.3828 5.24219C23.7812 5.08594 23.8203 4.42188 23.4453 4.22656C23.3594 4.17969 22.9219 4.14062 22.4687 4.14062C22.0156 4.14062 21.6406 4.125 21.6406 4.10938C21.6406 4.08594 22.0547 3.41406 22.5703 2.60156C23.0781 1.79688 23.5156 1.05469 23.5469 0.960938C23.6172 0.742188 23.4297 0.289062 23.1953 0.125C23.0469 0.0234375 22.7812 0 21.6797 0C20.4453 0 20.3281 0.015625 20.1719 0.15625Z" fill="black"/>
<path d="M12.3281 1.71092C12.0234 1.81248 10.8516 2.59373 10.0703 3.21092C9.20312 3.89842 7.74999 5.41405 7.15624 6.24998C5.35937 8.74998 4.37499 11.3672 4.06249 14.4062C3.96093 15.3828 4.02343 15.6328 4.36718 15.7812C4.61718 15.8828 4.95312 15.7812 5.06249 15.5703C5.10156 15.4922 5.17968 15.0234 5.22656 14.5312C5.54687 11.4297 6.64843 8.72655 8.5625 6.35155C9.54687 5.14061 11.0547 3.81248 12.2969 3.06248C13.0703 2.58592 13.2891 2.89061 12.8984 3.89842C12.2578 5.55467 12 7.18749 12.0547 9.17967C12.1094 11.3359 12.4922 12.9375 13.3984 14.8047C14.2344 16.539 15.3047 17.9219 16.9297 19.375C17.7031 20.0703 17.8984 20.289 18.125 20.7344L18.3984 21.2734L18.4219 26.1015C18.4375 29.2187 18.4141 30.9375 18.3672 30.9375C18.0625 30.9375 16.4375 30.5625 15.6641 30.3125C11.1172 28.8359 7.45312 25.1953 5.94531 20.664C5.65624 19.7969 5.31249 18.3437 5.31249 17.9844C5.31249 17.9062 5.24218 17.7422 5.14843 17.625C4.94531 17.3672 4.53124 17.3437 4.28906 17.5859C4.14062 17.7344 4.12499 17.8125 4.17187 18.2734C4.20312 18.5547 4.33593 19.2265 4.46093 19.7656C6.00781 26.1015 11.375 31.0312 17.8281 32.039L18.4297 32.1328L18.4531 35.4609C18.4766 39.1328 18.4609 38.9922 18.9922 39.5156C19.4687 39.9844 19.6797 40.0156 21.8828 39.9844C23.7266 39.9531 23.9062 39.9375 24.375 39.7734C25.3203 39.4219 26.0078 38.9297 26.5937 38.1797C27.1797 37.4219 27.5703 36.289 27.5781 35.3437V34.9453L28.3047 34.8984C28.7109 34.875 29.2187 34.789 29.4687 34.6953C30.4922 34.3437 31.4844 33.3984 31.4844 32.789C31.4844 32.5469 31.1797 32.2656 30.9062 32.2656C30.6953 32.2656 30.6484 32.3047 30.0469 32.9687C29.625 33.4375 29.0469 33.6797 28.2344 33.7344L27.5781 33.7734V31.2656C27.5781 29.5703 27.5469 28.6953 27.4922 28.5625C27.3125 28.164 26.6875 28.1328 26.4922 28.5078C26.4375 28.6094 26.4062 29.8437 26.4062 32.164C26.4062 36.0156 26.375 36.3047 25.9375 37.0703C25.6641 37.5469 25 38.1953 24.5469 38.4297C23.8906 38.7656 23.4219 38.8281 21.6328 38.8281H19.9297L19.7734 38.625C19.6094 38.414 19.6094 38.3984 19.6094 29.9922C19.6094 24.0234 19.5859 21.4531 19.5234 21.1562C19.3281 20.2422 18.7656 19.3672 17.9531 18.7031C17.7031 18.5078 17.5 18.3125 17.5 18.2812C17.5 18.1953 20.0391 17.2578 20.3906 17.2109C20.7969 17.1562 21.4687 17.3672 21.8281 17.664C21.9922 17.8047 22.2109 18.0937 22.3125 18.3125C22.5 18.7109 22.5 18.7265 22.5 21.6172C22.5 23.5781 22.5312 24.5859 22.5859 24.7109C22.6719 24.8984 22.9531 25.0781 23.1562 25.0781C23.2109 25.0781 23.3516 25.0078 23.4687 24.914L23.6719 24.7578V22.3281V19.9062L25.0625 19.9453C26.5469 19.9844 26.9297 20.0625 27.7578 20.4531C28.8437 20.9609 29.6719 21.7812 30.1953 22.8515C30.7187 23.9062 30.7266 24.0078 30.7656 27.3984L30.7891 30.4687L30.9922 30.625C31.3203 30.8828 31.6562 30.8203 31.8359 30.4609C31.9297 30.289 31.9531 29.9062 31.9531 28.7656V27.2969L32.2344 27.0234C33.3828 25.9219 34.8203 23.6406 35.5312 21.7734C36.0937 20.3047 36.1172 19.8828 35.6875 19.2969C35.375 18.8594 34.8828 18.6406 34.3281 18.6875C33.9766 18.7187 33.7891 18.8047 33.0703 19.2812C32.2187 19.8437 31.3125 20.3281 30.5781 20.6172L30.1797 20.7734L29.9531 20.539C29.6328 20.2031 28.6641 19.5547 28.1484 19.3281C27.2578 18.9297 26.625 18.8125 25.1016 18.7734L23.6797 18.7265L23.625 18.4844C23.4375 17.5859 22.7266 16.7344 21.8125 16.3047C21.3437 16.0859 21.2109 16.0625 20.5859 16.0625C19.8984 16.0625 19.8516 16.0781 18.2031 16.7031L16.5234 17.3437L16.1875 16.9765C14.9844 15.6328 13.8594 13.3437 13.4297 11.3437C13.2266 10.3828 13.1406 8.23436 13.2734 7.22655C13.3906 6.29686 13.7031 5.06248 14.0312 4.20311C14.3437 3.36717 14.3672 2.96873 14.1172 2.49217C13.7812 1.85936 12.9687 1.5078 12.3281 1.71092ZM34.7187 19.9687C34.8828 20.125 34.8828 20.1094 34.6016 20.914C34.1094 22.3203 33 24.3359 32.1641 25.3359L31.9766 25.5625L31.9141 24.8359C31.8437 23.8828 31.6406 23.125 31.2656 22.375L30.9609 21.7656L31.9453 21.2812C32.4844 21.0156 33.25 20.5781 33.6328 20.3203C34.375 19.8203 34.5234 19.7656 34.7187 19.9687Z" fill="black"/>
<path d="M30.3906 4.14062C30.2187 4.3125 30.1875 4.60938 30.3125 4.84375C30.4297 5.0625 30.8125 5.15625 31.5859 5.15625C32.1094 5.15625 32.2734 5.17969 32.2422 5.25C32.2265 5.30469 31.7969 6 31.289 6.79688C30.4375 8.14844 30.3828 8.26562 30.4219 8.55469C30.4453 8.75781 30.5312 8.92969 30.664 9.03906C30.8594 9.21094 30.9297 9.21875 32.2656 9.21875C33.6015 9.21875 33.6719 9.21094 33.8281 9.04688C33.914 8.95312 33.9844 8.79688 33.9844 8.70312C33.9844 8.19531 33.6953 8.04688 32.6953 8.04688C32.289 8.04688 31.9531 8.02344 31.9531 8C31.9531 7.97656 32.3828 7.27344 32.8984 6.4375C33.7812 5.03125 33.8437 4.89844 33.8047 4.625C33.7734 4.45312 33.6719 4.26562 33.5547 4.15625C33.3594 3.99219 33.289 3.98438 31.9453 3.98438C30.6484 3.98438 30.539 3.99219 30.3906 4.14062Z" fill="black"/>
<path d="M23.5781 9.02344C23.2891 9.1875 23.2187 9.5625 23.4141 9.83594C23.5625 10.0313 23.6094 10.0391 24.4844 10.0781L25.3984 10.1172L24.4375 11.6406C23.3437 13.3906 23.2812 13.5859 23.7344 13.9922L23.9844 14.2188H25.3359C26.5937 14.2188 26.7031 14.2109 26.8594 14.0625C27.1094 13.8281 27.0937 13.4219 26.8281 13.2109C26.6484 13.0703 26.5078 13.0469 25.8047 13.0469C25.1797 13.0469 24.9922 13.0234 25.0234 12.9453C25.0469 12.8984 25.4687 12.2031 25.9687 11.4141C26.9844 9.79688 27.0391 9.63281 26.6484 9.20313L26.4219 8.94531L25.1016 8.92969C24.0625 8.91406 23.75 8.92969 23.5781 9.02344Z" fill="black"/>
</svg>
