<svg width="20" height="20" viewBox="0 0 20 20" fill="none" xmlns="http://www.w3.org/2000/svg">
<path d="M10.0859 0.078125C9.96875 0.1875 9.96875 0.398438 10.0859 0.507812C10.1602 0.578125 10.2227 0.585938 10.5937 0.585938C10.8242 0.585938 11.0156 0.59375 11.0156 0.605469C11.0156 0.617188 10.8047 0.960938 10.5469 1.375C10.0664 2.14453 10.0156 2.27344 10.1172 2.46484C10.2031 2.625 10.3516 2.65625 10.9922 2.65625C11.3242 2.65625 11.6406 2.64062 11.6914 2.62109C11.8906 2.54297 11.9102 2.21094 11.7227 2.11328C11.6797 2.08984 11.4609 2.07031 11.2344 2.07031C11.0078 2.07031 10.8203 2.0625 10.8203 2.05469C10.8203 2.04297 11.0273 1.70703 11.2852 1.30078C11.5391 0.898438 11.7578 0.527344 11.7734 0.480469C11.8086 0.371094 11.7148 0.144531 11.5977 0.0625C11.5234 0.0117188 11.3906 0 10.8398 0C10.2227 0 10.1641 0.0078125 10.0859 0.078125Z" fill="black"/>
<path d="M6.16404 0.855469C6.0117 0.90625 5.42576 1.29688 5.03514 1.60547C4.60154 1.94922 3.87498 2.70703 3.57811 3.125C2.67967 4.375 2.18748 5.68359 2.03123 7.20313C1.98045 7.69141 2.0117 7.81641 2.18358 7.89063C2.30858 7.94141 2.47654 7.89063 2.53123 7.78516C2.55076 7.74609 2.58983 7.51172 2.61326 7.26563C2.77342 5.71484 3.3242 4.36328 4.28123 3.17578C4.77342 2.57031 5.52733 1.90625 6.14842 1.53125C6.53514 1.29297 6.64451 1.44531 6.4492 1.94922C6.12889 2.77734 5.99998 3.59375 6.02733 4.58984C6.05467 5.66797 6.24608 6.46875 6.6992 7.40234C7.11717 8.26953 7.65233 8.96094 8.46483 9.6875C8.85154 10.0352 8.9492 10.1445 9.06248 10.3672L9.1992 10.6367L9.21092 13.0508C9.21873 14.6094 9.20701 15.4688 9.18358 15.4688C9.03123 15.4688 8.21873 15.2813 7.83201 15.1563C5.55858 14.418 3.72654 12.5977 2.97264 10.332C2.82811 9.89844 2.65623 9.17188 2.65623 8.99219C2.65623 8.95313 2.62108 8.87109 2.5742 8.8125C2.47264 8.68359 2.26561 8.67188 2.14451 8.79297C2.07029 8.86719 2.06248 8.90625 2.08592 9.13672C2.10154 9.27734 2.16795 9.61328 2.23045 9.88281C3.00389 13.0508 5.68748 15.5156 8.91404 16.0195L9.21483 16.0664L9.22654 17.7305C9.23826 19.5664 9.23045 19.4961 9.49608 19.7578C9.73436 19.9922 9.83983 20.0078 10.9414 19.9922C11.8633 19.9766 11.9531 19.9688 12.1875 19.8867C12.6601 19.7109 13.0039 19.4648 13.2969 19.0898C13.5898 18.7109 13.7851 18.1445 13.789 17.6719V17.4727L14.1523 17.4492C14.3555 17.4375 14.6094 17.3945 14.7344 17.3477C15.2461 17.1719 15.7422 16.6992 15.7422 16.3945C15.7422 16.2734 15.5898 16.1328 15.4531 16.1328C15.3476 16.1328 15.3242 16.1523 15.0234 16.4844C14.8125 16.7188 14.5234 16.8398 14.1172 16.8672L13.789 16.8867V15.6328C13.789 14.7852 13.7734 14.3477 13.7461 14.2813C13.6562 14.082 13.3437 14.0664 13.2461 14.2539C13.2187 14.3047 13.2031 14.9219 13.2031 16.082C13.2031 18.0078 13.1875 18.1523 12.9687 18.5352C12.832 18.7734 12.5 19.0977 12.2734 19.2148C11.9453 19.3828 11.7109 19.4141 10.8164 19.4141H9.96483L9.8867 19.3125C9.80467 19.207 9.80467 19.1992 9.80467 14.9961C9.80467 12.0117 9.79295 10.7266 9.7617 10.5781C9.66404 10.1211 9.38279 9.68359 8.97654 9.35156C8.85154 9.25391 8.74998 9.15625 8.74998 9.14063C8.74998 9.09766 10.0195 8.62891 10.1953 8.60547C10.3984 8.57813 10.7344 8.68359 10.914 8.83203C10.9961 8.90234 11.1055 9.04688 11.1562 9.15625C11.25 9.35547 11.25 9.36328 11.25 10.8086C11.25 11.7891 11.2656 12.293 11.293 12.3555C11.3359 12.4492 11.4765 12.5391 11.5781 12.5391C11.6055 12.5391 11.6758 12.5039 11.7344 12.457L11.8359 12.3789V11.1641V9.95313L12.5312 9.97266C13.2734 9.99219 13.4648 10.0313 13.8789 10.2266C14.4219 10.4805 14.8359 10.8906 15.0976 11.4258C15.3594 11.9531 15.3633 12.0039 15.3828 13.6992L15.3945 15.2344L15.4961 15.3125C15.6601 15.4414 15.8281 15.4102 15.918 15.2305C15.9648 15.1445 15.9765 14.9531 15.9765 14.3828V13.6484L16.1172 13.5117C16.6914 12.9609 17.4101 11.8203 17.7656 10.8867C18.0469 10.1523 18.0586 9.94141 17.8437 9.64844C17.6875 9.42969 17.4414 9.32031 17.164 9.34375C16.9883 9.35938 16.8945 9.40234 16.5351 9.64063C16.1094 9.92188 15.6562 10.1641 15.289 10.3086L15.0898 10.3867L14.9765 10.2695C14.8164 10.1016 14.332 9.77734 14.0742 9.66406C13.6289 9.46484 13.3125 9.40625 12.5508 9.38672L11.8398 9.36328L11.8125 9.24219C11.7187 8.79297 11.3633 8.36719 10.9062 8.15234C10.6719 8.04297 10.6055 8.03125 10.293 8.03125C9.9492 8.03125 9.92576 8.03906 9.10154 8.35156L8.2617 8.67188L8.09373 8.48828C7.49217 7.81641 6.92967 6.67188 6.71483 5.67188C6.61326 5.19141 6.57029 4.11719 6.6367 3.61328C6.69529 3.14844 6.85154 2.53125 7.01561 2.10156C7.17186 1.68359 7.18358 1.48438 7.05858 1.24609C6.89061 0.929688 6.48436 0.753906 6.16404 0.855469ZM17.3594 9.98438C17.4414 10.0625 17.4414 10.0547 17.3008 10.457C17.0547 11.1602 16.5 12.168 16.082 12.668L15.9883 12.7813L15.957 12.418C15.9219 11.9414 15.8203 11.5625 15.6328 11.1875L15.4805 10.8828L15.9726 10.6406C16.2422 10.5078 16.625 10.2891 16.8164 10.1602C17.1875 9.91016 17.2617 9.88281 17.3594 9.98438Z" fill="black"/>
<path d="M15.1953 2.07031C15.1094 2.15625 15.0937 2.30469 15.1562 2.42188C15.2148 2.53125 15.4062 2.57812 15.793 2.57812C16.0547 2.57812 16.1367 2.58984 16.1211 2.625C16.1133 2.65234 15.8984 3 15.6445 3.39844C15.2187 4.07422 15.1914 4.13281 15.2109 4.27734C15.2226 4.37891 15.2656 4.46484 15.332 4.51953C15.4297 4.60547 15.4648 4.60938 16.1328 4.60938C16.8008 4.60938 16.8359 4.60547 16.9141 4.52344C16.957 4.47656 16.9922 4.39844 16.9922 4.35156C16.9922 4.09766 16.8476 4.02344 16.3476 4.02344C16.1445 4.02344 15.9766 4.01172 15.9766 4C15.9766 3.98828 16.1914 3.63672 16.4492 3.21875C16.8906 2.51562 16.9219 2.44922 16.9023 2.3125C16.8867 2.22656 16.8359 2.13281 16.7773 2.07812C16.6797 1.99609 16.6445 1.99219 15.9726 1.99219C15.3242 1.99219 15.2695 1.99609 15.1953 2.07031Z" fill="black"/>
<path d="M11.789 4.51172C11.6445 4.59375 11.6093 4.78125 11.707 4.91797C11.7812 5.01563 11.8047 5.01953 12.2422 5.03906L12.6992 5.05859L12.2187 5.82031C11.6718 6.69531 11.6406 6.79297 11.8672 6.99609L11.9922 7.10938H12.6679C13.2968 7.10938 13.3515 7.10547 13.4297 7.03125C13.5547 6.91406 13.5468 6.71094 13.414 6.60547C13.3242 6.53516 13.2539 6.52344 12.9023 6.52344C12.5898 6.52344 12.4961 6.51172 12.5117 6.47266C12.5234 6.44922 12.7343 6.10156 12.9843 5.70703C13.4922 4.89844 13.5195 4.81641 13.3242 4.60156L13.2109 4.47266L12.5507 4.46484C12.0312 4.45703 11.875 4.46484 11.789 4.51172Z" fill="black"/>
</svg>
