<svg width="41" height="40" viewBox="0 0 41 40" fill="none" xmlns="http://www.w3.org/2000/svg">
<g clip-path="url(#clip0_199_1371)">
<path d="M13.8984 0.367191C7.25001 0.671879 1.88282 5.45313 0.687508 12.1094C0.523446 13.0313 0.500008 15.3828 0.648446 16.2891C1.0547 18.8125 1.87501 20.7969 3.3047 22.7188C4.53907 24.3828 6.48438 26.0156 8.21876 26.8281C8.48438 26.9531 8.70313 27.0781 8.70313 27.1016C8.70313 27.125 8.44532 27.2969 8.13282 27.4688C6.91407 28.1719 5.75782 29.0781 3.94532 30.7734C2.84376 31.8047 2.60938 32.1719 2.60938 32.8906C2.60938 33.4141 2.8672 33.9922 3.2422 34.3438C3.66407 34.7344 5.6797 36.2188 6.57813 36.8047C8.53126 38.0781 10.8984 38.9922 13.3516 39.4141C15.0781 39.7109 18.4688 39.75 20.4063 39.4922C23.4531 39.0859 26.0391 38.0547 28.6406 36.1953C29.5391 35.5547 29.5781 35.5391 30.3438 35.3828C34.5234 34.5469 38.0234 31.625 39.6016 27.6641C40.8828 24.4375 40.7578 20.7891 39.25 17.6094C37.4453 13.7969 33.9766 11.1875 29.7969 10.5C29.4297 10.4453 28.9375 10.3906 28.7031 10.3828C27.9375 10.3672 27.9297 10.3594 27.6094 9.49219C26.2109 5.66407 23.125 2.60157 19.25 1.1875C17.5938 0.585941 15.6328 0.281254 13.8984 0.367191ZM17.0625 1.95313C18.1016 2.17188 18.9141 2.45313 19.9297 2.92969C20.75 3.32032 22.0781 4.17188 22.6875 4.6875L22.9609 4.92188L20.2656 7.61719L17.5703 10.3203L17.2734 9.98438C16.8047 9.45313 16.0625 8.3125 15.6563 7.5C14.9609 6.11719 14.4922 4.4375 14.3672 2.92969C14.3438 2.58594 14.2969 2.16407 14.2734 2L14.2344 1.69532L15.2734 1.74219C15.8516 1.77344 16.6563 1.86719 17.0625 1.95313ZM12.9531 2.125C12.9688 2.3125 13.0313 2.84375 13.0781 3.32032C13.3594 6.07032 14.4922 8.77344 16.2344 10.8047L16.6172 11.2656L15.5547 12.3281L14.4844 13.3984L10.2578 9.17969L6.03907 4.96094L6.41407 4.625C7.71876 3.44532 9.92188 2.375 11.9063 1.96094C12.9453 1.75 12.9063 1.74219 12.9531 2.125ZM24.3125 6.35938C24.8359 7 25.4297 7.90625 25.7734 8.59375C26.0859 9.21875 26.5391 10.3203 26.4922 10.3594C26.4766 10.375 26.1484 10.4453 25.7656 10.5078C24.1641 10.7813 22.0703 11.6094 20.8516 12.4453L20.4609 12.7109L19.7969 12.2578C19.4297 12.0078 18.9922 11.6797 18.8203 11.5313L18.5078 11.2578L21.2031 8.5625C22.6875 7.07813 23.8984 5.85938 23.9063 5.85938C23.9063 5.85938 24.0938 6.08594 24.3125 6.35938ZM9.35157 10.1406L13.5469 14.3359L12.5 15.3828L11.4453 16.4297L10.9141 16C8.62501 14.1328 5.81251 13.0313 2.82032 12.8359C2.25782 12.8047 2.03907 12.7578 2.00782 12.6797C1.94532 12.5156 2.18751 11.3594 2.46095 10.4844C2.75782 9.54688 3.32813 8.32813 3.82032 7.57032C4.22657 6.9375 5.00782 5.9375 5.09376 5.9375C5.12501 5.9375 7.03907 7.82813 9.35157 10.1406ZM29.5234 11.8047C30.7031 11.9922 30.8281 12.0391 30.9453 12.3281C31.0078 12.4766 31.0469 12.6016 31.0313 12.6172C31.0156 12.625 30.2969 13.1328 29.4219 13.7422L27.8359 14.8516L26.2344 13.7344C24.7578 12.7031 24.6406 12.6016 24.6797 12.4219C24.7578 12.1172 24.8672 12.0547 25.5391 11.9141C26.8125 11.6484 28.3203 11.6094 29.5234 11.8047ZM18.0313 12.6016C18.25 12.7891 18.625 13.0703 18.8594 13.2422C19.0938 13.4063 19.3047 13.5547 19.3203 13.5703C19.3359 13.5781 19.0703 13.8828 18.7266 14.2422C18.3906 14.5938 17.8984 15.1641 17.6484 15.4922L17.1953 16.1016L16.3438 15.2578C15.8828 14.7969 15.5 14.3828 15.5 14.3359C15.5 14.2422 17.4609 12.2656 17.5625 12.2656C17.6016 12.2656 17.8125 12.4141 18.0313 12.6016ZM23.1563 12.8828C23.1563 13.1563 23.5234 13.4688 25.3359 14.7266L27.1328 15.9766L27.1406 17.3125V18.6406L25.4531 19.7813L23.7734 20.9219L22.3984 20.3672L21.0156 19.8047L20.375 18.2109C19.7266 16.5938 19.6328 16.4453 19.1563 16.2422C19.0313 16.1953 18.9375 16.1016 18.9375 16.0391C18.9375 15.8516 20.6484 14.2109 21.3203 13.75C21.9141 13.3438 22.9688 12.7422 23.1016 12.7344C23.1328 12.7344 23.1563 12.8047 23.1563 12.8828ZM33.0234 12.9375C33.6328 13.25 34.6094 13.9141 35.2578 14.4609L35.8281 14.9453L35.5938 15.0469C35.4609 15.1016 35.3203 15.2109 35.2813 15.2891C35.2422 15.3672 34.9297 16.3984 34.6016 17.5781C34.2656 18.7578 33.9531 19.7656 33.9063 19.8203C33.8594 19.875 33.3672 20.125 32.8047 20.375L31.7969 20.8438L30.1484 19.7344L28.5078 18.6328L28.4844 17.3359L28.4688 16.0313L30.3672 14.7031C31.4141 13.9688 32.3047 13.3203 32.3594 13.2578C32.4141 13.1953 32.4609 13.0547 32.4688 12.9375C32.4922 12.6875 32.5156 12.6875 33.0234 12.9375ZM4.32813 14.3672C5.33595 14.5469 6.60157 14.9609 7.57032 15.4297C8.3047 15.7813 9.67188 16.6563 10.2109 17.125L10.5 17.3828L7.8047 20.0781L5.10157 22.7734L4.78907 22.4219C3.60157 21.0703 2.50001 18.7813 2.10938 16.8359C2.00782 16.3281 1.83595 14.7188 1.82813 14.2266C1.82813 14.0781 3.17188 14.1563 4.32813 14.3672ZM15.5234 16.3125L16.5234 17.3203L16.3203 17.7813C15.8203 18.8828 15.4063 20.3594 15.2969 21.4219C15.2656 21.7188 15.2188 21.9531 15.1875 21.9531C15.1563 21.9531 15.0703 21.7891 14.9922 21.5781C14.5859 20.4844 13.6172 18.8594 12.7734 17.8516L12.3828 17.3828L13.4141 16.3438C13.9766 15.7813 14.4609 15.3125 14.4844 15.3125C14.5078 15.3125 14.9766 15.7656 15.5234 16.3125ZM37.3281 16.8516C38.1484 18.125 38.7266 19.6016 38.9844 21.0859C39.125 21.8828 39.125 21.8984 38.9688 22.0078C38.6172 22.2656 38.5391 22.2344 36.9375 21.1719C36.0781 20.6016 35.3594 20.1172 35.3281 20.0859C35.2891 20.0469 36.1328 16.9063 36.3203 16.4219C36.3359 16.3672 36.4922 16.3281 36.6719 16.3281C36.9766 16.3281 37 16.3438 37.3281 16.8516ZM18.4609 17.375C18.6016 17.4531 18.7813 17.8047 19.1875 18.8281L19.7266 20.1875L18.3984 21.5156L17.0703 22.8438L16.7891 22.7109C16.4688 22.5625 16.4688 22.5469 16.6328 21.4453C16.8516 20.0234 17.3203 18.5625 17.8828 17.6172C18.1016 17.2422 18.1641 17.2109 18.4609 17.375ZM12.1328 19.1875C13.2109 20.6328 14.0391 22.4453 14.3984 24.2031C14.4922 24.6328 14.5625 25.0391 14.5625 25.1016C14.5625 25.1797 14.4297 25.2344 14.1563 25.2656C13.5625 25.3438 11.8047 25.8125 11.0625 26.0859L10.4141 26.3281L9.6797 26.0234C8.50001 25.5391 7.45313 24.8984 6.2422 23.9219L6.01563 23.7422L8.70313 21.0547C10.1875 19.5703 11.4219 18.3594 11.4531 18.3594C11.4844 18.3594 11.7891 18.7344 12.1328 19.1875ZM29.4766 20.9063C30.6719 21.7109 31.0469 22 31.0156 22.0938C30.9922 22.1641 30.7578 22.9922 30.4922 23.9219L30.0078 25.625H27.8359H25.6641L25.5469 25.2422C24.8281 22.8047 24.6094 21.9375 24.7188 21.875C24.7813 21.8359 25.4844 21.3672 26.2813 20.8281C27.0781 20.2891 27.7656 19.8516 27.8125 19.8516C27.8672 19.8438 28.6094 20.3203 29.4766 20.9063ZM23.9063 24.3594C24.2578 25.5703 24.5313 26.5625 24.5234 26.5625C24.5078 26.5625 24.1406 26.4219 23.6953 26.2422C21.9375 25.5469 19.8359 25.1094 17.8672 25.0234L16.6797 24.9766L16.6328 24.5938C16.5703 24.1484 16.5938 24.0938 16.8125 24.2109C16.9063 24.2578 17.0859 24.2969 17.2266 24.2969C17.4531 24.2969 17.6563 24.125 19.0781 22.7031L20.6797 21.1172L21.9766 21.6328L23.2734 22.1563L23.9063 24.3594ZM36.4297 22.4141C37.4766 23.1094 38.3984 23.6719 38.4922 23.6719C38.5859 23.6641 38.75 23.6172 38.8594 23.5547C38.9688 23.4922 39.0703 23.4453 39.1016 23.4375C39.1641 23.4375 39.0313 24.6484 38.8906 25.3359C38.7578 26.0078 38.4375 26.9766 38.1172 27.7109L37.9063 28.1953L37.6484 27.9297L37.3984 27.6563H35.1016H32.8047L32.0313 26.8828L31.2578 26.1094L31.8359 24.0703L32.4141 22.0391L33.3906 21.5703C33.9297 21.3203 34.4063 21.1172 34.4531 21.1328C34.5 21.1484 35.3906 21.7266 36.4297 22.4141ZM18.6641 26.4063C21.6641 26.6875 24.5313 27.7813 26.9453 29.5625C27.9219 30.2813 30.2344 32.3906 30.3438 32.6641C30.5156 33.0781 30.3594 33.2734 28.9453 34.3281C26.8359 35.8984 25.6094 36.625 24 37.2266C21.7266 38.0703 20.2578 38.3125 17.1797 38.3125C14.3906 38.3125 13.0156 38.125 11.0938 37.4844C8.96876 36.7813 7.73438 36.0938 5.17188 34.1641C3.62501 33 3.60938 32.9297 4.6172 31.9688C6.84376 29.8438 8.4297 28.7109 10.4063 27.8203C13.0391 26.6328 15.8672 26.1484 18.6641 26.4063ZM30.9609 27.7656L31.6875 28.4922L31.0938 29.6797L30.5 30.8672L29.5781 30.0313C28.2891 28.8594 27.0469 27.9375 25.7656 27.2109L25.4609 27.0391L27.8438 27.0313H30.2266L30.9609 27.7656ZM36.8984 29.2813L37.0547 29.5859L36.6953 30.0469C35.9141 31.0469 34.7031 32.0938 33.5 32.8047C32.9453 33.1328 31.6719 33.7031 31.625 33.6484C31.6094 33.6328 31.6328 33.5078 31.6797 33.3672C31.7891 33.0703 31.7266 32.4375 31.5703 32.1328C31.4609 31.9297 31.4844 31.8672 32.1875 30.4531L32.9219 28.9844H34.8359H36.75L36.8984 29.2813Z" fill="black"/>
<path d="M10.9219 30.3906C10.6406 30.5 10.5 30.7812 10.5 31.2187V31.6172L10.0156 31.664C9.6172 31.7031 9.4922 31.7422 9.35158 31.914C9.1172 32.1797 9.12502 32.5 9.3672 32.7656C9.53127 32.9453 9.6172 32.9687 10.0313 32.9687H10.5V33.3594C10.5 33.789 10.6563 34.1719 10.8516 34.25C11.125 34.3515 11.4453 34.2969 11.6328 34.1015C11.7969 33.9453 11.8281 33.8359 11.8281 33.4375V32.9687H12.4922H13.1563V33.3594C13.1563 33.789 13.3125 34.1719 13.5078 34.25C13.75 34.3437 14.0781 34.2969 14.2578 34.1484C14.4063 34.0312 14.4531 33.8984 14.4844 33.5L14.5235 33.0078L15.1719 32.9844L15.8125 32.9609V33.3125C15.8125 33.9609 16.0391 34.289 16.4844 34.2969C16.9063 34.2969 17.0938 34.0703 17.1406 33.5L17.1797 33.0078L17.8125 32.9844L18.4453 32.9609L18.4922 33.4453C18.5469 34.039 18.75 34.2969 19.1719 34.2969C19.5938 34.2969 19.7813 34.0625 19.8125 33.4765L19.836 33.0078H20.5H21.1641L21.1875 33.4765C21.2188 34.0625 21.4063 34.2969 21.8281 34.2969C22.25 34.2969 22.4531 34.039 22.5078 33.4453L22.5547 32.9687H23C23.3594 32.9687 23.4688 32.9375 23.6016 32.789C23.8281 32.539 23.8672 32.3828 23.7656 32.1015C23.6641 31.8125 23.3203 31.6406 22.8438 31.6406C22.5313 31.6406 22.5313 31.6406 22.5313 31.3359C22.5313 31.1719 22.4922 30.9219 22.4453 30.7812C22.2813 30.3125 21.6094 30.2109 21.3125 30.6094C21.25 30.6797 21.2031 30.9453 21.2031 31.1875V31.6406H20.5H19.7969V31.1875C19.7969 30.9453 19.75 30.6797 19.6875 30.6094C19.3906 30.2109 18.7188 30.3125 18.5547 30.7812C18.5078 30.9219 18.4688 31.1719 18.4688 31.3359V31.6406H17.8047H17.1406V31.1875C17.1328 30.6875 17.0391 30.5078 16.6875 30.3828C16.1953 30.2109 15.8125 30.6328 15.8125 31.3359V31.6406H15.1485H14.4844V31.1875C14.4844 30.7969 14.4531 30.7031 14.2891 30.5469C14.0313 30.3047 13.6094 30.2969 13.375 30.5312C13.25 30.6562 13.1953 30.8203 13.1719 31.1719L13.1406 31.6406H12.4844H11.8281V31.2187C11.8281 30.8828 11.7891 30.75 11.6563 30.5937C11.4531 30.3672 11.1641 30.289 10.9219 30.3906Z" fill="black"/>
</g>
<defs>
<clipPath id="clip0_199_1371">
<rect width="40" height="40" fill="white" transform="translate(0.5)"/>
</clipPath>
</defs>
</svg>
