<svg width="20" height="20" viewBox="0 0 20 20" fill="none" xmlns="http://www.w3.org/2000/svg">
<g clip-path="url(#clip0_38_178)">
<path d="M6.69919 0.183596C3.37497 0.335939 0.69138 2.72656 0.0937237 6.05469C0.0116924 6.51563 -2.63564e-05 7.69141 0.0741924 8.14453C0.277317 9.40625 0.687474 10.3984 1.40232 11.3594C2.01951 12.1914 2.99216 13.0078 3.85935 13.4141C3.99216 13.4766 4.10154 13.5391 4.10154 13.5508C4.10154 13.5625 3.97263 13.6484 3.81638 13.7344C3.20701 14.0859 2.62888 14.5391 1.72263 15.3867C1.17185 15.9023 1.05466 16.0859 1.05466 16.4453C1.05466 16.707 1.18357 16.9961 1.37107 17.1719C1.58201 17.3672 2.58982 18.1094 3.03904 18.4023C4.0156 19.0391 5.19919 19.4961 6.42576 19.707C7.28904 19.8555 8.98435 19.875 9.9531 19.7461C11.4765 19.543 12.7695 19.0273 14.0703 18.0977C14.5195 17.7773 14.539 17.7695 14.9219 17.6914C17.0117 17.2734 18.7617 15.8125 19.5508 13.832C20.1914 12.2188 20.1289 10.3945 19.375 8.80469C18.4726 6.89844 16.7383 5.59375 14.6484 5.25C14.4648 5.22266 14.2187 5.19531 14.1015 5.19141C13.7187 5.1836 13.7148 5.17969 13.5547 4.7461C12.8554 2.83203 11.3125 1.30078 9.37497 0.593752C8.54685 0.292971 7.56638 0.140627 6.69919 0.183596ZM8.28122 0.976564C8.80076 1.08594 9.20701 1.22656 9.71482 1.46485C10.125 1.66016 10.789 2.08594 11.0937 2.34375L11.2304 2.46094L9.88279 3.8086L8.53513 5.16016L8.38669 4.99219C8.15232 4.72656 7.78122 4.15625 7.5781 3.75C7.23044 3.0586 6.99607 2.21875 6.93357 1.46485C6.92185 1.29297 6.89841 1.08203 6.88669 1L6.86716 0.847658L7.38669 0.871096C7.67576 0.886721 8.0781 0.933596 8.28122 0.976564ZM6.22654 1.0625C6.23435 1.15625 6.2656 1.42188 6.28904 1.66016C6.42966 3.03516 6.99607 4.38672 7.86716 5.40235L8.05857 5.63281L7.52732 6.16406L6.99216 6.69922L4.87888 4.58985L2.76951 2.48047L2.95701 2.3125C3.60935 1.72266 4.71091 1.1875 5.7031 0.980471C6.22263 0.875002 6.2031 0.871096 6.22654 1.0625ZM11.9062 3.17969C12.1679 3.5 12.4648 3.95313 12.6367 4.29688C12.7929 4.60938 13.0195 5.16016 12.9961 5.17969C12.9883 5.1875 12.8242 5.22266 12.6328 5.25391C11.832 5.39063 10.7851 5.80469 10.1758 6.22266L9.98044 6.35547L9.64841 6.12891C9.46482 6.00391 9.24607 5.83985 9.16013 5.76563L9.00388 5.62891L10.3515 4.28125C11.0937 3.53906 11.6992 2.92969 11.7031 2.92969C11.7031 2.92969 11.7968 3.04297 11.9062 3.17969ZM4.42576 5.07031L6.52341 7.16797L5.99997 7.69141L5.47263 8.21485L5.20701 8C4.06247 7.06641 2.65622 6.51563 1.16013 6.41797C0.87888 6.40235 0.769505 6.37891 0.75388 6.33985C0.72263 6.25781 0.843724 5.67969 0.980443 5.24219C1.12888 4.77344 1.41404 4.16406 1.66013 3.78516C1.86326 3.46875 2.25388 2.96875 2.29685 2.96875C2.31247 2.96875 3.26951 3.91406 4.42576 5.07031ZM14.5117 5.90235C15.1015 5.9961 15.164 6.01953 15.2226 6.16406C15.2539 6.23828 15.2734 6.30078 15.2656 6.3086C15.2578 6.3125 14.8984 6.56641 14.4609 6.8711L13.6679 7.42578L12.8672 6.86719C12.1289 6.35156 12.0703 6.30078 12.0898 6.21094C12.1289 6.0586 12.1836 6.02735 12.5195 5.95703C13.1562 5.82422 13.9101 5.80469 14.5117 5.90235ZM8.7656 6.30078C8.87497 6.39453 9.06247 6.53516 9.17966 6.6211C9.29685 6.70313 9.40232 6.77735 9.41013 6.78516C9.41794 6.78906 9.28513 6.94141 9.11326 7.1211C8.94529 7.29688 8.69919 7.58203 8.57419 7.7461L8.34763 8.05078L7.92185 7.62891C7.69138 7.39844 7.49997 7.19141 7.49997 7.16797C7.49997 7.1211 8.48044 6.13281 8.53122 6.13281C8.55076 6.13281 8.65622 6.20703 8.7656 6.30078ZM11.3281 6.44141C11.3281 6.57813 11.5117 6.73438 12.4179 7.36328L13.3164 7.98828L13.3203 8.65625V9.32031L12.4765 9.89063L11.6367 10.4609L10.9492 10.1836L10.2578 9.90235L9.93747 9.10547C9.61326 8.29688 9.56638 8.22266 9.3281 8.1211C9.2656 8.09766 9.21872 8.05078 9.21872 8.01953C9.21872 7.92578 10.0742 7.10547 10.4101 6.875C10.707 6.67188 11.2343 6.3711 11.3008 6.36719C11.3164 6.36719 11.3281 6.40235 11.3281 6.44141ZM16.2617 6.46875C16.5664 6.625 17.0547 6.95703 17.3789 7.23047L17.664 7.47266L17.5469 7.52344C17.4804 7.55078 17.4101 7.60547 17.3906 7.64453C17.3711 7.6836 17.2148 8.19922 17.0508 8.78906C16.8828 9.37891 16.7265 9.88281 16.7031 9.91016C16.6797 9.9375 16.4336 10.0625 16.1523 10.1875L15.6484 10.4219L14.8242 9.86719L14.0039 9.31641L13.9922 8.66797L13.9844 8.01563L14.9336 7.35156C15.457 6.98438 15.9023 6.66016 15.9297 6.62891C15.957 6.59766 15.9804 6.52735 15.9844 6.46875C15.9961 6.34375 16.0078 6.34375 16.2617 6.46875ZM1.91404 7.1836C2.41794 7.27344 3.05076 7.48047 3.53513 7.71485C3.90232 7.89063 4.58591 8.32813 4.85544 8.5625L4.99997 8.69141L3.65232 10.0391L2.30076 11.3867L2.14451 11.2109C1.55076 10.5352 0.999974 9.39063 0.804661 8.41797C0.75388 8.16406 0.667942 7.35938 0.664036 7.11328C0.664036 7.03906 1.33591 7.07813 1.91404 7.1836ZM7.51169 8.15625L8.01169 8.66016L7.91013 8.89063C7.66013 9.44141 7.4531 10.1797 7.39841 10.7109C7.38279 10.8594 7.35935 10.9766 7.34372 10.9766C7.3281 10.9766 7.28513 10.8945 7.24607 10.7891C7.04294 10.2422 6.55857 9.42969 6.13669 8.92578L5.94138 8.69141L6.45701 8.17188C6.73826 7.89063 6.98044 7.65625 6.99216 7.65625C7.00388 7.65625 7.23826 7.88281 7.51169 8.15625ZM18.414 8.42578C18.8242 9.0625 19.1133 9.80078 19.2422 10.543C19.3125 10.9414 19.3125 10.9492 19.2344 11.0039C19.0586 11.1328 19.0195 11.1172 18.2187 10.5859C17.789 10.3008 17.4297 10.0586 17.414 10.043C17.3945 10.0234 17.8164 8.45313 17.9101 8.21094C17.9179 8.1836 17.9961 8.16406 18.0859 8.16406C18.2383 8.16406 18.25 8.17188 18.414 8.42578ZM8.98044 8.6875C9.05076 8.72656 9.1406 8.90235 9.34372 9.41406L9.61326 10.0938L8.94919 10.7578L8.28513 11.4219L8.14451 11.3555C7.98435 11.2813 7.98435 11.2734 8.06638 10.7227C8.17576 10.0117 8.41013 9.28125 8.69138 8.8086C8.80076 8.6211 8.83201 8.60547 8.98044 8.6875ZM5.81638 9.59375C6.35544 10.3164 6.76951 11.2227 6.94919 12.1016C6.99607 12.3164 7.03122 12.5195 7.03122 12.5508C7.03122 12.5898 6.96482 12.6172 6.8281 12.6328C6.53122 12.6719 5.65232 12.9063 5.28122 13.043L4.95701 13.1641L4.58982 13.0117C3.99997 12.7695 3.47654 12.4492 2.87107 11.9609L2.75779 11.8711L4.10154 10.5273C4.84372 9.78516 5.46091 9.17969 5.47654 9.17969C5.49216 9.17969 5.64451 9.36719 5.81638 9.59375ZM14.4883 10.4531C15.0859 10.8555 15.2734 11 15.2578 11.0469C15.2461 11.082 15.1289 11.4961 14.9961 11.9609L14.7539 12.8125H13.6679H12.582L12.5234 12.6211C12.164 11.4023 12.0547 10.9688 12.1094 10.9375C12.1406 10.918 12.4922 10.6836 12.8906 10.4141C13.289 10.1445 13.6328 9.92578 13.6562 9.92578C13.6836 9.92188 14.0547 10.1602 14.4883 10.4531ZM11.7031 12.1797C11.8789 12.7852 12.0156 13.2813 12.0117 13.2813C12.0039 13.2813 11.8203 13.2109 11.5976 13.1211C10.7187 12.7734 9.66794 12.5547 8.68357 12.5117L8.08982 12.4883L8.06638 12.2969C8.03513 12.0742 8.04685 12.0469 8.15622 12.1055C8.2031 12.1289 8.29294 12.1484 8.36326 12.1484C8.47654 12.1484 8.5781 12.0625 9.28904 11.3516L10.0898 10.5586L10.7383 10.8164L11.3867 11.0781L11.7031 12.1797ZM17.9648 11.207C18.4883 11.5547 18.9492 11.8359 18.9961 11.8359C19.0429 11.832 19.125 11.8086 19.1797 11.7773C19.2344 11.7461 19.2851 11.7227 19.3008 11.7188C19.332 11.7188 19.2656 12.3242 19.1953 12.668C19.1289 13.0039 18.9687 13.4883 18.8086 13.8555L18.7031 14.0977L18.5742 13.9648L18.4492 13.8281H17.3008H16.1523L15.7656 13.4414L15.3789 13.0547L15.6679 12.0352L15.957 11.0195L16.4453 10.7852C16.7148 10.6602 16.9531 10.5586 16.9765 10.5664C17 10.5742 17.4453 10.8633 17.9648 11.207ZM9.08201 13.2031C10.582 13.3438 12.0156 13.8906 13.2226 14.7813C13.7109 15.1406 14.8672 16.1953 14.9219 16.332C15.0078 16.5391 14.9297 16.6367 14.2226 17.1641C13.1679 17.9492 12.5547 18.3125 11.75 18.6133C10.6133 19.0352 9.87888 19.1563 8.33982 19.1563C6.94529 19.1563 6.25779 19.0625 5.29685 18.7422C4.23435 18.3906 3.61716 18.0469 2.33591 17.082C1.56247 16.5 1.55466 16.4648 2.05857 15.9844C3.17185 14.9219 3.96482 14.3555 4.9531 13.9102C6.26951 13.3164 7.68357 13.0742 9.08201 13.2031ZM15.2304 13.8828L15.5937 14.2461L15.2969 14.8398L15 15.4336L14.539 15.0156C13.8945 14.4297 13.2734 13.9688 12.6328 13.6055L12.4804 13.5195L13.6719 13.5156H14.8633L15.2304 13.8828ZM18.1992 14.6406L18.2773 14.793L18.0976 15.0234C17.707 15.5234 17.1015 16.0469 16.5 16.4023C16.2226 16.5664 15.5859 16.8516 15.5625 16.8242C15.5547 16.8164 15.5664 16.7539 15.5898 16.6836C15.6445 16.5352 15.6133 16.2188 15.5351 16.0664C15.4804 15.9648 15.4922 15.9336 15.8437 15.2266L16.2109 14.4922H17.1679H18.125L18.1992 14.6406Z" fill="black"/>
<path d="M5.21093 15.1953C5.07031 15.25 4.99999 15.3906 4.99999 15.6094V15.8086L4.75781 15.832C4.55859 15.8516 4.49609 15.8711 4.42577 15.957C4.30859 16.0898 4.31249 16.25 4.43359 16.3828C4.51562 16.4727 4.55859 16.4844 4.76562 16.4844H4.99999V16.6797C4.99999 16.8945 5.07812 17.0859 5.17577 17.125C5.31249 17.1758 5.47265 17.1484 5.5664 17.0508C5.64843 16.9727 5.66406 16.918 5.66406 16.7188V16.4844H5.99609H6.32812V16.6797C6.32812 16.8945 6.40624 17.0859 6.5039 17.125C6.62499 17.1719 6.78906 17.1484 6.8789 17.0742C6.95312 17.0156 6.97656 16.9492 6.99218 16.75L7.01171 16.5039L7.33593 16.4922L7.65624 16.4805V16.6563C7.65624 16.9805 7.76952 17.1445 7.99218 17.1484C8.20312 17.1484 8.29687 17.0352 8.32031 16.75L8.33984 16.5039L8.65624 16.4922L8.97265 16.4805L8.99609 16.7227C9.02343 17.0195 9.12499 17.1484 9.33593 17.1484C9.54687 17.1484 9.64062 17.0313 9.65624 16.7383L9.66796 16.5039H9.99999H10.332L10.3437 16.7383C10.3594 17.0313 10.4531 17.1484 10.6641 17.1484C10.875 17.1484 10.9766 17.0195 11.0039 16.7227L11.0273 16.4844H11.25C11.4297 16.4844 11.4844 16.4688 11.5508 16.3945C11.6641 16.2695 11.6836 16.1914 11.6328 16.0508C11.582 15.9063 11.4101 15.8203 11.1719 15.8203C11.0156 15.8203 11.0156 15.8203 11.0156 15.668C11.0156 15.5859 10.9961 15.4609 10.9726 15.3906C10.8906 15.1563 10.5547 15.1055 10.4062 15.3047C10.375 15.3398 10.3516 15.4727 10.3516 15.5938V15.8203H9.99999H9.64843V15.5938C9.64843 15.4727 9.62499 15.3398 9.59374 15.3047C9.44531 15.1055 9.10937 15.1563 9.02734 15.3906C9.0039 15.4609 8.98437 15.5859 8.98437 15.668V15.8203H8.65234H8.32031V15.5938C8.3164 15.3438 8.26952 15.2539 8.09374 15.1914C7.84765 15.1055 7.65624 15.3164 7.65624 15.668V15.8203H7.32421H6.99218V15.5938C6.99218 15.3984 6.97656 15.3516 6.89452 15.2734C6.76562 15.1523 6.55468 15.1484 6.43749 15.2656C6.37499 15.3281 6.34765 15.4102 6.33593 15.5859L6.32031 15.8203H5.99218H5.66406V15.6094C5.66406 15.4414 5.64452 15.375 5.57812 15.2969C5.47656 15.1836 5.33202 15.1445 5.21093 15.1953Z" fill="black"/>
</g>
<defs>
<clipPath id="clip0_38_178">
<rect width="20" height="20" fill="white"/>
</clipPath>
</defs>
</svg>
